G04 #@! TF.GenerationSoftware,KiCad,Pcbnew,(5.1.5)-3*
G04 #@! TF.CreationDate,2020-03-02T23:39:02-06:00*
G04 #@! TF.ProjectId,PMT_PCB,504d545f-5043-4422-9e6b-696361645f70,rev?*
G04 #@! TF.SameCoordinates,Original*
G04 #@! TF.FileFunction,Copper,L2,Bot*
G04 #@! TF.FilePolarity,Positive*
%FSLAX46Y46*%
G04 Gerber Fmt 4.6, Leading zero omitted, Abs format (unit mm)*
G04 Created by KiCad (PCBNEW (5.1.5)-3) date 2020-03-02 23:39:02*
%MOMM*%
%LPD*%
G04 APERTURE LIST*
%ADD10O,1.905000X2.000000*%
%ADD11R,1.905000X2.000000*%
%ADD12O,1.700000X1.700000*%
%ADD13R,1.700000X1.700000*%
%ADD14C,1.700000*%
%ADD15C,1.200000*%
%ADD16R,1.200000X1.200000*%
%ADD17C,0.800000*%
%ADD18C,0.200000*%
%ADD19C,0.254000*%
G04 APERTURE END LIST*
D10*
X149860000Y-97155000D03*
X152400000Y-97155000D03*
D11*
X154940000Y-97155000D03*
D12*
X157861000Y-80010000D03*
X157861000Y-77470000D03*
X157861000Y-74930000D03*
D13*
X157861000Y-72390000D03*
D12*
X143510000Y-100330000D03*
X143510000Y-97790000D03*
X143510000Y-95250000D03*
X143510000Y-92710000D03*
X143510000Y-90170000D03*
X143510000Y-87630000D03*
X143510000Y-85090000D03*
D13*
X143510000Y-82550000D03*
D12*
X148590000Y-108585000D03*
X151130000Y-108585000D03*
X153670000Y-108585000D03*
D13*
X156210000Y-108585000D03*
X143510000Y-62230000D03*
D12*
X143510000Y-64770000D03*
X143510000Y-67310000D03*
X143510000Y-69850000D03*
X143510000Y-72390000D03*
X143510000Y-74930000D03*
X143510000Y-77470000D03*
D14*
X138430000Y-60960000D03*
D12*
X138430000Y-83820000D03*
X138430000Y-86360000D03*
X138430000Y-88900000D03*
X138430000Y-71120000D03*
X138430000Y-63500000D03*
X138430000Y-78740000D03*
X138430000Y-81280000D03*
X138430000Y-96520000D03*
X138430000Y-106680000D03*
X138430000Y-68580000D03*
X138430000Y-66040000D03*
X138430000Y-99060000D03*
X138430000Y-109220000D03*
X138430000Y-104140000D03*
X138430000Y-91440000D03*
X138430000Y-73660000D03*
X138430000Y-93980000D03*
X138430000Y-76200000D03*
X138430000Y-101600000D03*
D13*
X120650000Y-60960000D03*
D12*
X120650000Y-83820000D03*
X120650000Y-86360000D03*
X120650000Y-88900000D03*
X120650000Y-71120000D03*
X120650000Y-63500000D03*
X120650000Y-78740000D03*
X120650000Y-81280000D03*
X120650000Y-96520000D03*
X120650000Y-106680000D03*
X120650000Y-68580000D03*
X120650000Y-66040000D03*
X120650000Y-99060000D03*
X120650000Y-109220000D03*
X120650000Y-104140000D03*
X120650000Y-91440000D03*
X120650000Y-73660000D03*
X120650000Y-93980000D03*
X120650000Y-76200000D03*
X120650000Y-101600000D03*
D15*
X149955000Y-102870000D03*
D16*
X147955000Y-102870000D03*
X155575000Y-102870000D03*
D15*
X153575000Y-102870000D03*
D17*
X128270000Y-92710000D03*
X125730000Y-90170000D03*
X133350000Y-87630000D03*
X130810000Y-87630000D03*
X140970000Y-72390000D03*
X140970000Y-71120000D03*
X129540000Y-88900000D03*
D18*
X128270000Y-92710000D02*
X125730000Y-90170000D01*
X133350000Y-87630000D02*
X130810000Y-87630000D01*
X143510000Y-69850000D02*
X140970000Y-72390000D01*
X142240000Y-78740000D02*
X143510000Y-77470000D01*
X138430000Y-78740000D02*
X142240000Y-78740000D01*
X140970000Y-71120000D02*
X140970000Y-66040000D01*
X142240000Y-66040000D02*
X143510000Y-64770000D01*
X140970000Y-66040000D02*
X142240000Y-66040000D01*
X142240000Y-76200000D02*
X143510000Y-74930000D01*
X138430000Y-76200000D02*
X142240000Y-76200000D01*
X135577997Y-79890001D02*
X155440999Y-79890001D01*
X157011001Y-78319999D02*
X157861000Y-77470000D01*
X155440999Y-79890001D02*
X157011001Y-78319999D01*
X129540000Y-85927998D02*
X135577997Y-79890001D01*
X129540000Y-88900000D02*
X129540000Y-85927998D01*
X138742003Y-75049999D02*
X137877999Y-75049999D01*
X137877999Y-75049999D02*
X124460000Y-88467998D01*
X140012003Y-73779999D02*
X138742003Y-75049999D01*
X157861000Y-74930000D02*
X156710999Y-73779999D01*
X156710999Y-73779999D02*
X140012003Y-73779999D01*
X124460000Y-97790000D02*
X120650000Y-101600000D01*
X124460000Y-88467998D02*
X124460000Y-97790000D01*
D19*
G36*
X166980001Y-114910000D02*
G01*
X114960000Y-114910000D01*
X114960000Y-65893740D01*
X119165000Y-65893740D01*
X119165000Y-66186260D01*
X119222068Y-66473158D01*
X119334010Y-66743411D01*
X119496525Y-66986632D01*
X119703368Y-67193475D01*
X119877760Y-67310000D01*
X119703368Y-67426525D01*
X119496525Y-67633368D01*
X119334010Y-67876589D01*
X119222068Y-68146842D01*
X119165000Y-68433740D01*
X119165000Y-68726260D01*
X119222068Y-69013158D01*
X119334010Y-69283411D01*
X119496525Y-69526632D01*
X119703368Y-69733475D01*
X119877760Y-69850000D01*
X119703368Y-69966525D01*
X119496525Y-70173368D01*
X119334010Y-70416589D01*
X119222068Y-70686842D01*
X119165000Y-70973740D01*
X119165000Y-71266260D01*
X119222068Y-71553158D01*
X119334010Y-71823411D01*
X119496525Y-72066632D01*
X119703368Y-72273475D01*
X119877760Y-72390000D01*
X119703368Y-72506525D01*
X119496525Y-72713368D01*
X119334010Y-72956589D01*
X119222068Y-73226842D01*
X119165000Y-73513740D01*
X119165000Y-73806260D01*
X119222068Y-74093158D01*
X119334010Y-74363411D01*
X119496525Y-74606632D01*
X119703368Y-74813475D01*
X119877760Y-74930000D01*
X119703368Y-75046525D01*
X119496525Y-75253368D01*
X119334010Y-75496589D01*
X119222068Y-75766842D01*
X119165000Y-76053740D01*
X119165000Y-76346260D01*
X119222068Y-76633158D01*
X119334010Y-76903411D01*
X119496525Y-77146632D01*
X119703368Y-77353475D01*
X119877760Y-77470000D01*
X119703368Y-77586525D01*
X119496525Y-77793368D01*
X119334010Y-78036589D01*
X119222068Y-78306842D01*
X119165000Y-78593740D01*
X119165000Y-78886260D01*
X119222068Y-79173158D01*
X119334010Y-79443411D01*
X119496525Y-79686632D01*
X119703368Y-79893475D01*
X119877760Y-80010000D01*
X119703368Y-80126525D01*
X119496525Y-80333368D01*
X119334010Y-80576589D01*
X119222068Y-80846842D01*
X119165000Y-81133740D01*
X119165000Y-81426260D01*
X119222068Y-81713158D01*
X119334010Y-81983411D01*
X119496525Y-82226632D01*
X119703368Y-82433475D01*
X119877760Y-82550000D01*
X119703368Y-82666525D01*
X119496525Y-82873368D01*
X119334010Y-83116589D01*
X119222068Y-83386842D01*
X119165000Y-83673740D01*
X119165000Y-83966260D01*
X119222068Y-84253158D01*
X119334010Y-84523411D01*
X119496525Y-84766632D01*
X119703368Y-84973475D01*
X119877760Y-85090000D01*
X119703368Y-85206525D01*
X119496525Y-85413368D01*
X119334010Y-85656589D01*
X119222068Y-85926842D01*
X119165000Y-86213740D01*
X119165000Y-86506260D01*
X119222068Y-86793158D01*
X119334010Y-87063411D01*
X119496525Y-87306632D01*
X119703368Y-87513475D01*
X119877760Y-87630000D01*
X119703368Y-87746525D01*
X119496525Y-87953368D01*
X119334010Y-88196589D01*
X119222068Y-88466842D01*
X119165000Y-88753740D01*
X119165000Y-89046260D01*
X119222068Y-89333158D01*
X119334010Y-89603411D01*
X119496525Y-89846632D01*
X119703368Y-90053475D01*
X119877760Y-90170000D01*
X119703368Y-90286525D01*
X119496525Y-90493368D01*
X119334010Y-90736589D01*
X119222068Y-91006842D01*
X119165000Y-91293740D01*
X119165000Y-91586260D01*
X119222068Y-91873158D01*
X119334010Y-92143411D01*
X119496525Y-92386632D01*
X119703368Y-92593475D01*
X119877760Y-92710000D01*
X119703368Y-92826525D01*
X119496525Y-93033368D01*
X119334010Y-93276589D01*
X119222068Y-93546842D01*
X119165000Y-93833740D01*
X119165000Y-94126260D01*
X119222068Y-94413158D01*
X119334010Y-94683411D01*
X119496525Y-94926632D01*
X119703368Y-95133475D01*
X119877760Y-95250000D01*
X119703368Y-95366525D01*
X119496525Y-95573368D01*
X119334010Y-95816589D01*
X119222068Y-96086842D01*
X119165000Y-96373740D01*
X119165000Y-96666260D01*
X119222068Y-96953158D01*
X119334010Y-97223411D01*
X119496525Y-97466632D01*
X119703368Y-97673475D01*
X119877760Y-97790000D01*
X119703368Y-97906525D01*
X119496525Y-98113368D01*
X119334010Y-98356589D01*
X119222068Y-98626842D01*
X119165000Y-98913740D01*
X119165000Y-99206260D01*
X119222068Y-99493158D01*
X119334010Y-99763411D01*
X119496525Y-100006632D01*
X119703368Y-100213475D01*
X119877760Y-100330000D01*
X119703368Y-100446525D01*
X119496525Y-100653368D01*
X119334010Y-100896589D01*
X119222068Y-101166842D01*
X119165000Y-101453740D01*
X119165000Y-101746260D01*
X119222068Y-102033158D01*
X119334010Y-102303411D01*
X119496525Y-102546632D01*
X119703368Y-102753475D01*
X119877760Y-102870000D01*
X119703368Y-102986525D01*
X119496525Y-103193368D01*
X119334010Y-103436589D01*
X119222068Y-103706842D01*
X119165000Y-103993740D01*
X119165000Y-104286260D01*
X119222068Y-104573158D01*
X119334010Y-104843411D01*
X119496525Y-105086632D01*
X119703368Y-105293475D01*
X119877760Y-105410000D01*
X119703368Y-105526525D01*
X119496525Y-105733368D01*
X119334010Y-105976589D01*
X119222068Y-106246842D01*
X119165000Y-106533740D01*
X119165000Y-106826260D01*
X119222068Y-107113158D01*
X119334010Y-107383411D01*
X119496525Y-107626632D01*
X119703368Y-107833475D01*
X119877760Y-107950000D01*
X119703368Y-108066525D01*
X119496525Y-108273368D01*
X119334010Y-108516589D01*
X119222068Y-108786842D01*
X119165000Y-109073740D01*
X119165000Y-109366260D01*
X119222068Y-109653158D01*
X119334010Y-109923411D01*
X119496525Y-110166632D01*
X119703368Y-110373475D01*
X119946589Y-110535990D01*
X120216842Y-110647932D01*
X120503740Y-110705000D01*
X120796260Y-110705000D01*
X121083158Y-110647932D01*
X121353411Y-110535990D01*
X121596632Y-110373475D01*
X121803475Y-110166632D01*
X121965990Y-109923411D01*
X122077932Y-109653158D01*
X122135000Y-109366260D01*
X122135000Y-109073740D01*
X122077932Y-108786842D01*
X121965990Y-108516589D01*
X121803475Y-108273368D01*
X121596632Y-108066525D01*
X121422240Y-107950000D01*
X121596632Y-107833475D01*
X121803475Y-107626632D01*
X121965990Y-107383411D01*
X122077932Y-107113158D01*
X122135000Y-106826260D01*
X122135000Y-106533740D01*
X122077932Y-106246842D01*
X121965990Y-105976589D01*
X121803475Y-105733368D01*
X121596632Y-105526525D01*
X121422240Y-105410000D01*
X121596632Y-105293475D01*
X121803475Y-105086632D01*
X121965990Y-104843411D01*
X122077932Y-104573158D01*
X122135000Y-104286260D01*
X122135000Y-103993740D01*
X122077932Y-103706842D01*
X121965990Y-103436589D01*
X121803475Y-103193368D01*
X121596632Y-102986525D01*
X121422240Y-102870000D01*
X121596632Y-102753475D01*
X121803475Y-102546632D01*
X121965990Y-102303411D01*
X122077932Y-102033158D01*
X122135000Y-101746260D01*
X122135000Y-101453740D01*
X122085344Y-101204103D01*
X124954193Y-98335254D01*
X124982238Y-98312238D01*
X125074087Y-98200320D01*
X125128731Y-98098089D01*
X125142337Y-98072634D01*
X125184365Y-97934085D01*
X125198556Y-97790000D01*
X125195000Y-97753895D01*
X125195000Y-91057308D01*
X125239744Y-91087205D01*
X125428102Y-91165226D01*
X125628061Y-91205000D01*
X125725554Y-91205000D01*
X127235000Y-92714447D01*
X127235000Y-92811939D01*
X127274774Y-93011898D01*
X127352795Y-93200256D01*
X127466063Y-93369774D01*
X127610226Y-93513937D01*
X127779744Y-93627205D01*
X127968102Y-93705226D01*
X128168061Y-93745000D01*
X128371939Y-93745000D01*
X128571898Y-93705226D01*
X128760256Y-93627205D01*
X128929774Y-93513937D01*
X129073937Y-93369774D01*
X129187205Y-93200256D01*
X129265226Y-93011898D01*
X129305000Y-92811939D01*
X129305000Y-92608061D01*
X129265226Y-92408102D01*
X129187205Y-92219744D01*
X129073937Y-92050226D01*
X128929774Y-91906063D01*
X128760256Y-91792795D01*
X128571898Y-91714774D01*
X128371939Y-91675000D01*
X128274447Y-91675000D01*
X126765000Y-90165554D01*
X126765000Y-90068061D01*
X126725226Y-89868102D01*
X126647205Y-89679744D01*
X126533937Y-89510226D01*
X126389774Y-89366063D01*
X126220256Y-89252795D01*
X126031898Y-89174774D01*
X125831939Y-89135000D01*
X125628061Y-89135000D01*
X125428102Y-89174774D01*
X125239744Y-89252795D01*
X125195000Y-89282692D01*
X125195000Y-88772444D01*
X137099372Y-76868073D01*
X137114010Y-76903411D01*
X137276525Y-77146632D01*
X137483368Y-77353475D01*
X137657760Y-77470000D01*
X137483368Y-77586525D01*
X137276525Y-77793368D01*
X137114010Y-78036589D01*
X137002068Y-78306842D01*
X136945000Y-78593740D01*
X136945000Y-78886260D01*
X136998456Y-79155001D01*
X135614091Y-79155001D01*
X135577996Y-79151446D01*
X135541901Y-79155001D01*
X135541892Y-79155001D01*
X135433912Y-79165636D01*
X135295364Y-79207664D01*
X135167677Y-79275914D01*
X135055759Y-79367763D01*
X135032743Y-79395808D01*
X129045808Y-85382744D01*
X129017763Y-85405760D01*
X128925914Y-85517678D01*
X128922985Y-85523158D01*
X128857664Y-85645365D01*
X128815635Y-85783913D01*
X128801444Y-85927998D01*
X128805001Y-85964113D01*
X128805000Y-88171289D01*
X128736063Y-88240226D01*
X128622795Y-88409744D01*
X128544774Y-88598102D01*
X128505000Y-88798061D01*
X128505000Y-89001939D01*
X128544774Y-89201898D01*
X128622795Y-89390256D01*
X128736063Y-89559774D01*
X128880226Y-89703937D01*
X129049744Y-89817205D01*
X129238102Y-89895226D01*
X129438061Y-89935000D01*
X129641939Y-89935000D01*
X129841898Y-89895226D01*
X130030256Y-89817205D01*
X130199774Y-89703937D01*
X130343937Y-89559774D01*
X130457205Y-89390256D01*
X130535226Y-89201898D01*
X130575000Y-89001939D01*
X130575000Y-88798061D01*
X130541961Y-88631961D01*
X130708061Y-88665000D01*
X130911939Y-88665000D01*
X131111898Y-88625226D01*
X131300256Y-88547205D01*
X131469774Y-88433937D01*
X131538711Y-88365000D01*
X132621289Y-88365000D01*
X132690226Y-88433937D01*
X132859744Y-88547205D01*
X133048102Y-88625226D01*
X133248061Y-88665000D01*
X133451939Y-88665000D01*
X133651898Y-88625226D01*
X133840256Y-88547205D01*
X134009774Y-88433937D01*
X134153937Y-88289774D01*
X134267205Y-88120256D01*
X134345226Y-87931898D01*
X134385000Y-87731939D01*
X134385000Y-87528061D01*
X134345226Y-87328102D01*
X134267205Y-87139744D01*
X134153937Y-86970226D01*
X134009774Y-86826063D01*
X133840256Y-86712795D01*
X133651898Y-86634774D01*
X133451939Y-86595000D01*
X133248061Y-86595000D01*
X133048102Y-86634774D01*
X132859744Y-86712795D01*
X132690226Y-86826063D01*
X132621289Y-86895000D01*
X131538711Y-86895000D01*
X131469774Y-86826063D01*
X131300256Y-86712795D01*
X131111898Y-86634774D01*
X130911939Y-86595000D01*
X130708061Y-86595000D01*
X130508102Y-86634774D01*
X130319744Y-86712795D01*
X130275000Y-86742692D01*
X130275000Y-86232444D01*
X135882444Y-80625001D01*
X137093957Y-80625001D01*
X137002068Y-80846842D01*
X136945000Y-81133740D01*
X136945000Y-81426260D01*
X137002068Y-81713158D01*
X137114010Y-81983411D01*
X137276525Y-82226632D01*
X137483368Y-82433475D01*
X137657760Y-82550000D01*
X137483368Y-82666525D01*
X137276525Y-82873368D01*
X137114010Y-83116589D01*
X137002068Y-83386842D01*
X136945000Y-83673740D01*
X136945000Y-83966260D01*
X137002068Y-84253158D01*
X137114010Y-84523411D01*
X137276525Y-84766632D01*
X137483368Y-84973475D01*
X137657760Y-85090000D01*
X137483368Y-85206525D01*
X137276525Y-85413368D01*
X137114010Y-85656589D01*
X137002068Y-85926842D01*
X136945000Y-86213740D01*
X136945000Y-86506260D01*
X137002068Y-86793158D01*
X137114010Y-87063411D01*
X137276525Y-87306632D01*
X137483368Y-87513475D01*
X137657760Y-87630000D01*
X137483368Y-87746525D01*
X137276525Y-87953368D01*
X137114010Y-88196589D01*
X137002068Y-88466842D01*
X136945000Y-88753740D01*
X136945000Y-89046260D01*
X137002068Y-89333158D01*
X137114010Y-89603411D01*
X137276525Y-89846632D01*
X137483368Y-90053475D01*
X137657760Y-90170000D01*
X137483368Y-90286525D01*
X137276525Y-90493368D01*
X137114010Y-90736589D01*
X137002068Y-91006842D01*
X136945000Y-91293740D01*
X136945000Y-91586260D01*
X137002068Y-91873158D01*
X137114010Y-92143411D01*
X137276525Y-92386632D01*
X137483368Y-92593475D01*
X137657760Y-92710000D01*
X137483368Y-92826525D01*
X137276525Y-93033368D01*
X137114010Y-93276589D01*
X137002068Y-93546842D01*
X136945000Y-93833740D01*
X136945000Y-94126260D01*
X137002068Y-94413158D01*
X137114010Y-94683411D01*
X137276525Y-94926632D01*
X137483368Y-95133475D01*
X137657760Y-95250000D01*
X137483368Y-95366525D01*
X137276525Y-95573368D01*
X137114010Y-95816589D01*
X137002068Y-96086842D01*
X136945000Y-96373740D01*
X136945000Y-96666260D01*
X137002068Y-96953158D01*
X137114010Y-97223411D01*
X137276525Y-97466632D01*
X137483368Y-97673475D01*
X137657760Y-97790000D01*
X137483368Y-97906525D01*
X137276525Y-98113368D01*
X137114010Y-98356589D01*
X137002068Y-98626842D01*
X136945000Y-98913740D01*
X136945000Y-99206260D01*
X137002068Y-99493158D01*
X137114010Y-99763411D01*
X137276525Y-100006632D01*
X137483368Y-100213475D01*
X137657760Y-100330000D01*
X137483368Y-100446525D01*
X137276525Y-100653368D01*
X137114010Y-100896589D01*
X137002068Y-101166842D01*
X136945000Y-101453740D01*
X136945000Y-101746260D01*
X137002068Y-102033158D01*
X137114010Y-102303411D01*
X137276525Y-102546632D01*
X137483368Y-102753475D01*
X137657760Y-102870000D01*
X137483368Y-102986525D01*
X137276525Y-103193368D01*
X137114010Y-103436589D01*
X137002068Y-103706842D01*
X136945000Y-103993740D01*
X136945000Y-104286260D01*
X137002068Y-104573158D01*
X137114010Y-104843411D01*
X137276525Y-105086632D01*
X137483368Y-105293475D01*
X137657760Y-105410000D01*
X137483368Y-105526525D01*
X137276525Y-105733368D01*
X137114010Y-105976589D01*
X137002068Y-106246842D01*
X136945000Y-106533740D01*
X136945000Y-106826260D01*
X137002068Y-107113158D01*
X137114010Y-107383411D01*
X137276525Y-107626632D01*
X137483368Y-107833475D01*
X137657760Y-107950000D01*
X137483368Y-108066525D01*
X137276525Y-108273368D01*
X137114010Y-108516589D01*
X137002068Y-108786842D01*
X136945000Y-109073740D01*
X136945000Y-109366260D01*
X137002068Y-109653158D01*
X137114010Y-109923411D01*
X137276525Y-110166632D01*
X137483368Y-110373475D01*
X137726589Y-110535990D01*
X137996842Y-110647932D01*
X138283740Y-110705000D01*
X138576260Y-110705000D01*
X138863158Y-110647932D01*
X139133411Y-110535990D01*
X139376632Y-110373475D01*
X139583475Y-110166632D01*
X139745990Y-109923411D01*
X139857932Y-109653158D01*
X139915000Y-109366260D01*
X139915000Y-109073740D01*
X139888774Y-108941891D01*
X147148519Y-108941891D01*
X147245843Y-109216252D01*
X147394822Y-109466355D01*
X147589731Y-109682588D01*
X147823080Y-109856641D01*
X148085901Y-109981825D01*
X148233110Y-110026476D01*
X148463000Y-109905155D01*
X148463000Y-108712000D01*
X147269186Y-108712000D01*
X147148519Y-108941891D01*
X139888774Y-108941891D01*
X139857932Y-108786842D01*
X139745990Y-108516589D01*
X139583475Y-108273368D01*
X139538216Y-108228109D01*
X147148519Y-108228109D01*
X147269186Y-108458000D01*
X148463000Y-108458000D01*
X148463000Y-107264845D01*
X148717000Y-107264845D01*
X148717000Y-108458000D01*
X148737000Y-108458000D01*
X148737000Y-108712000D01*
X148717000Y-108712000D01*
X148717000Y-109905155D01*
X148946890Y-110026476D01*
X149094099Y-109981825D01*
X149356920Y-109856641D01*
X149590269Y-109682588D01*
X149785178Y-109466355D01*
X149854805Y-109349466D01*
X149976525Y-109531632D01*
X150183368Y-109738475D01*
X150426589Y-109900990D01*
X150696842Y-110012932D01*
X150983740Y-110070000D01*
X151276260Y-110070000D01*
X151563158Y-110012932D01*
X151833411Y-109900990D01*
X152076632Y-109738475D01*
X152283475Y-109531632D01*
X152405195Y-109349466D01*
X152474822Y-109466355D01*
X152669731Y-109682588D01*
X152903080Y-109856641D01*
X153165901Y-109981825D01*
X153313110Y-110026476D01*
X153543000Y-109905155D01*
X153543000Y-108712000D01*
X153523000Y-108712000D01*
X153523000Y-108458000D01*
X153543000Y-108458000D01*
X153543000Y-107264845D01*
X153797000Y-107264845D01*
X153797000Y-108458000D01*
X153817000Y-108458000D01*
X153817000Y-108712000D01*
X153797000Y-108712000D01*
X153797000Y-109905155D01*
X154026890Y-110026476D01*
X154174099Y-109981825D01*
X154436920Y-109856641D01*
X154670269Y-109682588D01*
X154746034Y-109598534D01*
X154770498Y-109679180D01*
X154829463Y-109789494D01*
X154908815Y-109886185D01*
X155005506Y-109965537D01*
X155115820Y-110024502D01*
X155235518Y-110060812D01*
X155360000Y-110073072D01*
X157060000Y-110073072D01*
X157184482Y-110060812D01*
X157304180Y-110024502D01*
X157414494Y-109965537D01*
X157511185Y-109886185D01*
X157590537Y-109789494D01*
X157649502Y-109679180D01*
X157685812Y-109559482D01*
X157698072Y-109435000D01*
X157698072Y-107735000D01*
X157685812Y-107610518D01*
X157649502Y-107490820D01*
X157590537Y-107380506D01*
X157511185Y-107283815D01*
X157414494Y-107204463D01*
X157304180Y-107145498D01*
X157184482Y-107109188D01*
X157060000Y-107096928D01*
X155360000Y-107096928D01*
X155235518Y-107109188D01*
X155115820Y-107145498D01*
X155005506Y-107204463D01*
X154908815Y-107283815D01*
X154829463Y-107380506D01*
X154770498Y-107490820D01*
X154746034Y-107571466D01*
X154670269Y-107487412D01*
X154436920Y-107313359D01*
X154174099Y-107188175D01*
X154026890Y-107143524D01*
X153797000Y-107264845D01*
X153543000Y-107264845D01*
X153313110Y-107143524D01*
X153165901Y-107188175D01*
X152903080Y-107313359D01*
X152669731Y-107487412D01*
X152474822Y-107703645D01*
X152405195Y-107820534D01*
X152283475Y-107638368D01*
X152076632Y-107431525D01*
X151833411Y-107269010D01*
X151563158Y-107157068D01*
X151276260Y-107100000D01*
X150983740Y-107100000D01*
X150696842Y-107157068D01*
X150426589Y-107269010D01*
X150183368Y-107431525D01*
X149976525Y-107638368D01*
X149854805Y-107820534D01*
X149785178Y-107703645D01*
X149590269Y-107487412D01*
X149356920Y-107313359D01*
X149094099Y-107188175D01*
X148946890Y-107143524D01*
X148717000Y-107264845D01*
X148463000Y-107264845D01*
X148233110Y-107143524D01*
X148085901Y-107188175D01*
X147823080Y-107313359D01*
X147589731Y-107487412D01*
X147394822Y-107703645D01*
X147245843Y-107953748D01*
X147148519Y-108228109D01*
X139538216Y-108228109D01*
X139376632Y-108066525D01*
X139202240Y-107950000D01*
X139376632Y-107833475D01*
X139583475Y-107626632D01*
X139745990Y-107383411D01*
X139857932Y-107113158D01*
X139915000Y-106826260D01*
X139915000Y-106533740D01*
X139857932Y-106246842D01*
X139745990Y-105976589D01*
X139583475Y-105733368D01*
X139376632Y-105526525D01*
X139202240Y-105410000D01*
X139376632Y-105293475D01*
X139583475Y-105086632D01*
X139745990Y-104843411D01*
X139857932Y-104573158D01*
X139915000Y-104286260D01*
X139915000Y-103993740D01*
X139857932Y-103706842D01*
X139745990Y-103436589D01*
X139583475Y-103193368D01*
X139376632Y-102986525D01*
X139202240Y-102870000D01*
X139376632Y-102753475D01*
X139583475Y-102546632D01*
X139745990Y-102303411D01*
X139759829Y-102270000D01*
X146716928Y-102270000D01*
X146716928Y-103470000D01*
X146729188Y-103594482D01*
X146765498Y-103714180D01*
X146824463Y-103824494D01*
X146903815Y-103921185D01*
X147000506Y-104000537D01*
X147110820Y-104059502D01*
X147230518Y-104095812D01*
X147355000Y-104108072D01*
X148555000Y-104108072D01*
X148679482Y-104095812D01*
X148799180Y-104059502D01*
X148909494Y-104000537D01*
X149006185Y-103921185D01*
X149085537Y-103824494D01*
X149109858Y-103778994D01*
X149167736Y-103836872D01*
X149284842Y-103719766D01*
X149332148Y-103943348D01*
X149553516Y-104044237D01*
X149790313Y-104100000D01*
X150033438Y-104108495D01*
X150273549Y-104069395D01*
X150501418Y-103984202D01*
X150577852Y-103943348D01*
X150625159Y-103719764D01*
X149955000Y-103049605D01*
X149940858Y-103063748D01*
X149761253Y-102884143D01*
X149775395Y-102870000D01*
X150134605Y-102870000D01*
X150804764Y-103540159D01*
X151028348Y-103492852D01*
X151129237Y-103271484D01*
X151185000Y-103034687D01*
X151188013Y-102948438D01*
X152336505Y-102948438D01*
X152375605Y-103188549D01*
X152460798Y-103416418D01*
X152501652Y-103492852D01*
X152725236Y-103540159D01*
X153395395Y-102870000D01*
X152725236Y-102199841D01*
X152501652Y-102247148D01*
X152400763Y-102468516D01*
X152345000Y-102705313D01*
X152336505Y-102948438D01*
X151188013Y-102948438D01*
X151193495Y-102791562D01*
X151154395Y-102551451D01*
X151069202Y-102323582D01*
X151028348Y-102247148D01*
X150804764Y-102199841D01*
X150134605Y-102870000D01*
X149775395Y-102870000D01*
X149761253Y-102855858D01*
X149940858Y-102676253D01*
X149955000Y-102690395D01*
X150625159Y-102020236D01*
X152904841Y-102020236D01*
X153575000Y-102690395D01*
X153589143Y-102676253D01*
X153768748Y-102855858D01*
X153754605Y-102870000D01*
X153768748Y-102884143D01*
X153589143Y-103063748D01*
X153575000Y-103049605D01*
X152904841Y-103719764D01*
X152952148Y-103943348D01*
X153173516Y-104044237D01*
X153410313Y-104100000D01*
X153653438Y-104108495D01*
X153893549Y-104069395D01*
X154121418Y-103984202D01*
X154197852Y-103943348D01*
X154245158Y-103719766D01*
X154362264Y-103836872D01*
X154420142Y-103778994D01*
X154444463Y-103824494D01*
X154523815Y-103921185D01*
X154620506Y-104000537D01*
X154730820Y-104059502D01*
X154850518Y-104095812D01*
X154975000Y-104108072D01*
X156175000Y-104108072D01*
X156299482Y-104095812D01*
X156419180Y-104059502D01*
X156529494Y-104000537D01*
X156626185Y-103921185D01*
X156705537Y-103824494D01*
X156764502Y-103714180D01*
X156800812Y-103594482D01*
X156813072Y-103470000D01*
X156813072Y-102270000D01*
X156800812Y-102145518D01*
X156764502Y-102025820D01*
X156705537Y-101915506D01*
X156626185Y-101818815D01*
X156529494Y-101739463D01*
X156419180Y-101680498D01*
X156299482Y-101644188D01*
X156175000Y-101631928D01*
X154975000Y-101631928D01*
X154850518Y-101644188D01*
X154730820Y-101680498D01*
X154620506Y-101739463D01*
X154523815Y-101818815D01*
X154444463Y-101915506D01*
X154420142Y-101961006D01*
X154362264Y-101903128D01*
X154245158Y-102020234D01*
X154197852Y-101796652D01*
X153976484Y-101695763D01*
X153739687Y-101640000D01*
X153496562Y-101631505D01*
X153256451Y-101670605D01*
X153028582Y-101755798D01*
X152952148Y-101796652D01*
X152904841Y-102020236D01*
X150625159Y-102020236D01*
X150577852Y-101796652D01*
X150356484Y-101695763D01*
X150119687Y-101640000D01*
X149876562Y-101631505D01*
X149636451Y-101670605D01*
X149408582Y-101755798D01*
X149332148Y-101796652D01*
X149284842Y-102020234D01*
X149167736Y-101903128D01*
X149109858Y-101961006D01*
X149085537Y-101915506D01*
X149006185Y-101818815D01*
X148909494Y-101739463D01*
X148799180Y-101680498D01*
X148679482Y-101644188D01*
X148555000Y-101631928D01*
X147355000Y-101631928D01*
X147230518Y-101644188D01*
X147110820Y-101680498D01*
X147000506Y-101739463D01*
X146903815Y-101818815D01*
X146824463Y-101915506D01*
X146765498Y-102025820D01*
X146729188Y-102145518D01*
X146716928Y-102270000D01*
X139759829Y-102270000D01*
X139857932Y-102033158D01*
X139915000Y-101746260D01*
X139915000Y-101453740D01*
X139857932Y-101166842D01*
X139745990Y-100896589D01*
X139583475Y-100653368D01*
X139376632Y-100446525D01*
X139202240Y-100330000D01*
X139376632Y-100213475D01*
X139583475Y-100006632D01*
X139745990Y-99763411D01*
X139857932Y-99493158D01*
X139915000Y-99206260D01*
X139915000Y-98913740D01*
X139857932Y-98626842D01*
X139745990Y-98356589D01*
X139583475Y-98113368D01*
X139376632Y-97906525D01*
X139202240Y-97790000D01*
X139376632Y-97673475D01*
X139583475Y-97466632D01*
X139745990Y-97223411D01*
X139857932Y-96953158D01*
X139915000Y-96666260D01*
X139915000Y-96373740D01*
X139857932Y-96086842D01*
X139745990Y-95816589D01*
X139583475Y-95573368D01*
X139376632Y-95366525D01*
X139202240Y-95250000D01*
X139376632Y-95133475D01*
X139583475Y-94926632D01*
X139745990Y-94683411D01*
X139857932Y-94413158D01*
X139915000Y-94126260D01*
X139915000Y-93833740D01*
X139857932Y-93546842D01*
X139745990Y-93276589D01*
X139583475Y-93033368D01*
X139376632Y-92826525D01*
X139202240Y-92710000D01*
X139376632Y-92593475D01*
X139583475Y-92386632D01*
X139745990Y-92143411D01*
X139857932Y-91873158D01*
X139915000Y-91586260D01*
X139915000Y-91293740D01*
X139857932Y-91006842D01*
X139745990Y-90736589D01*
X139583475Y-90493368D01*
X139376632Y-90286525D01*
X139202240Y-90170000D01*
X139376632Y-90053475D01*
X139406367Y-90023740D01*
X142025000Y-90023740D01*
X142025000Y-90316260D01*
X142082068Y-90603158D01*
X142194010Y-90873411D01*
X142356525Y-91116632D01*
X142563368Y-91323475D01*
X142737760Y-91440000D01*
X142563368Y-91556525D01*
X142356525Y-91763368D01*
X142194010Y-92006589D01*
X142082068Y-92276842D01*
X142025000Y-92563740D01*
X142025000Y-92856260D01*
X142082068Y-93143158D01*
X142194010Y-93413411D01*
X142356525Y-93656632D01*
X142563368Y-93863475D01*
X142737760Y-93980000D01*
X142563368Y-94096525D01*
X142356525Y-94303368D01*
X142194010Y-94546589D01*
X142082068Y-94816842D01*
X142025000Y-95103740D01*
X142025000Y-95396260D01*
X142082068Y-95683158D01*
X142194010Y-95953411D01*
X142356525Y-96196632D01*
X142563368Y-96403475D01*
X142737760Y-96520000D01*
X142563368Y-96636525D01*
X142356525Y-96843368D01*
X142194010Y-97086589D01*
X142082068Y-97356842D01*
X142025000Y-97643740D01*
X142025000Y-97936260D01*
X142082068Y-98223158D01*
X142194010Y-98493411D01*
X142356525Y-98736632D01*
X142563368Y-98943475D01*
X142737760Y-99060000D01*
X142563368Y-99176525D01*
X142356525Y-99383368D01*
X142194010Y-99626589D01*
X142082068Y-99896842D01*
X142025000Y-100183740D01*
X142025000Y-100476260D01*
X142082068Y-100763158D01*
X142194010Y-101033411D01*
X142356525Y-101276632D01*
X142563368Y-101483475D01*
X142806589Y-101645990D01*
X143076842Y-101757932D01*
X143363740Y-101815000D01*
X143656260Y-101815000D01*
X143943158Y-101757932D01*
X144213411Y-101645990D01*
X144456632Y-101483475D01*
X144663475Y-101276632D01*
X144825990Y-101033411D01*
X144937932Y-100763158D01*
X144995000Y-100476260D01*
X144995000Y-100183740D01*
X144937932Y-99896842D01*
X144825990Y-99626589D01*
X144663475Y-99383368D01*
X144456632Y-99176525D01*
X144282240Y-99060000D01*
X144456632Y-98943475D01*
X144663475Y-98736632D01*
X144825990Y-98493411D01*
X144937932Y-98223158D01*
X144995000Y-97936260D01*
X144995000Y-97643740D01*
X144937932Y-97356842D01*
X144825990Y-97086589D01*
X144787854Y-97029514D01*
X148272500Y-97029514D01*
X148272500Y-97280485D01*
X148295470Y-97513703D01*
X148386245Y-97812948D01*
X148533655Y-98088734D01*
X148732037Y-98330463D01*
X148973765Y-98528845D01*
X149249551Y-98676255D01*
X149548796Y-98767030D01*
X149860000Y-98797681D01*
X150171203Y-98767030D01*
X150470448Y-98676255D01*
X150746234Y-98528845D01*
X150987963Y-98330463D01*
X151135163Y-98151101D01*
X151290563Y-98336315D01*
X151533077Y-98530969D01*
X151808906Y-98674571D01*
X152027020Y-98745563D01*
X152273000Y-98625594D01*
X152273000Y-97282000D01*
X152253000Y-97282000D01*
X152253000Y-97028000D01*
X152273000Y-97028000D01*
X152273000Y-95684406D01*
X152527000Y-95684406D01*
X152527000Y-97028000D01*
X152547000Y-97028000D01*
X152547000Y-97282000D01*
X152527000Y-97282000D01*
X152527000Y-98625594D01*
X152772980Y-98745563D01*
X152991094Y-98674571D01*
X153266923Y-98530969D01*
X153407941Y-98417781D01*
X153456963Y-98509494D01*
X153536315Y-98606185D01*
X153633006Y-98685537D01*
X153743320Y-98744502D01*
X153863018Y-98780812D01*
X153987500Y-98793072D01*
X155892500Y-98793072D01*
X156016982Y-98780812D01*
X156136680Y-98744502D01*
X156246994Y-98685537D01*
X156343685Y-98606185D01*
X156423037Y-98509494D01*
X156482002Y-98399180D01*
X156518312Y-98279482D01*
X156530572Y-98155000D01*
X156530572Y-96155000D01*
X156518312Y-96030518D01*
X156482002Y-95910820D01*
X156423037Y-95800506D01*
X156343685Y-95703815D01*
X156246994Y-95624463D01*
X156136680Y-95565498D01*
X156016982Y-95529188D01*
X155892500Y-95516928D01*
X153987500Y-95516928D01*
X153863018Y-95529188D01*
X153743320Y-95565498D01*
X153633006Y-95624463D01*
X153536315Y-95703815D01*
X153456963Y-95800506D01*
X153407941Y-95892219D01*
X153266923Y-95779031D01*
X152991094Y-95635429D01*
X152772980Y-95564437D01*
X152527000Y-95684406D01*
X152273000Y-95684406D01*
X152027020Y-95564437D01*
X151808906Y-95635429D01*
X151533077Y-95779031D01*
X151290563Y-95973685D01*
X151135162Y-96158900D01*
X150987963Y-95979537D01*
X150746235Y-95781155D01*
X150470449Y-95633745D01*
X150171204Y-95542970D01*
X149860000Y-95512319D01*
X149548797Y-95542970D01*
X149249552Y-95633745D01*
X148973766Y-95781155D01*
X148732037Y-95979537D01*
X148533655Y-96221265D01*
X148386245Y-96497051D01*
X148295470Y-96796296D01*
X148272500Y-97029514D01*
X144787854Y-97029514D01*
X144663475Y-96843368D01*
X144456632Y-96636525D01*
X144282240Y-96520000D01*
X144456632Y-96403475D01*
X144663475Y-96196632D01*
X144825990Y-95953411D01*
X144937932Y-95683158D01*
X144995000Y-95396260D01*
X144995000Y-95103740D01*
X144937932Y-94816842D01*
X144825990Y-94546589D01*
X144663475Y-94303368D01*
X144456632Y-94096525D01*
X144282240Y-93980000D01*
X144456632Y-93863475D01*
X144663475Y-93656632D01*
X144825990Y-93413411D01*
X144937932Y-93143158D01*
X144995000Y-92856260D01*
X144995000Y-92563740D01*
X144937932Y-92276842D01*
X144825990Y-92006589D01*
X144663475Y-91763368D01*
X144456632Y-91556525D01*
X144282240Y-91440000D01*
X144456632Y-91323475D01*
X144663475Y-91116632D01*
X144825990Y-90873411D01*
X144937932Y-90603158D01*
X144995000Y-90316260D01*
X144995000Y-90023740D01*
X144937932Y-89736842D01*
X144825990Y-89466589D01*
X144663475Y-89223368D01*
X144456632Y-89016525D01*
X144274466Y-88894805D01*
X144391355Y-88825178D01*
X144607588Y-88630269D01*
X144781641Y-88396920D01*
X144906825Y-88134099D01*
X144951476Y-87986890D01*
X144830155Y-87757000D01*
X143637000Y-87757000D01*
X143637000Y-87777000D01*
X143383000Y-87777000D01*
X143383000Y-87757000D01*
X142189845Y-87757000D01*
X142068524Y-87986890D01*
X142113175Y-88134099D01*
X142238359Y-88396920D01*
X142412412Y-88630269D01*
X142628645Y-88825178D01*
X142745534Y-88894805D01*
X142563368Y-89016525D01*
X142356525Y-89223368D01*
X142194010Y-89466589D01*
X142082068Y-89736842D01*
X142025000Y-90023740D01*
X139406367Y-90023740D01*
X139583475Y-89846632D01*
X139745990Y-89603411D01*
X139857932Y-89333158D01*
X139915000Y-89046260D01*
X139915000Y-88753740D01*
X139857932Y-88466842D01*
X139745990Y-88196589D01*
X139583475Y-87953368D01*
X139376632Y-87746525D01*
X139202240Y-87630000D01*
X139376632Y-87513475D01*
X139583475Y-87306632D01*
X139745990Y-87063411D01*
X139857932Y-86793158D01*
X139915000Y-86506260D01*
X139915000Y-86213740D01*
X139857932Y-85926842D01*
X139745990Y-85656589D01*
X139583475Y-85413368D01*
X139376632Y-85206525D01*
X139202240Y-85090000D01*
X139376632Y-84973475D01*
X139583475Y-84766632D01*
X139745990Y-84523411D01*
X139857932Y-84253158D01*
X139915000Y-83966260D01*
X139915000Y-83673740D01*
X139857932Y-83386842D01*
X139745990Y-83116589D01*
X139583475Y-82873368D01*
X139376632Y-82666525D01*
X139202240Y-82550000D01*
X139376632Y-82433475D01*
X139583475Y-82226632D01*
X139745990Y-81983411D01*
X139857932Y-81713158D01*
X139860549Y-81700000D01*
X142021928Y-81700000D01*
X142021928Y-83400000D01*
X142034188Y-83524482D01*
X142070498Y-83644180D01*
X142129463Y-83754494D01*
X142208815Y-83851185D01*
X142305506Y-83930537D01*
X142415820Y-83989502D01*
X142488380Y-84011513D01*
X142356525Y-84143368D01*
X142194010Y-84386589D01*
X142082068Y-84656842D01*
X142025000Y-84943740D01*
X142025000Y-85236260D01*
X142082068Y-85523158D01*
X142194010Y-85793411D01*
X142356525Y-86036632D01*
X142563368Y-86243475D01*
X142745534Y-86365195D01*
X142628645Y-86434822D01*
X142412412Y-86629731D01*
X142238359Y-86863080D01*
X142113175Y-87125901D01*
X142068524Y-87273110D01*
X142189845Y-87503000D01*
X143383000Y-87503000D01*
X143383000Y-87483000D01*
X143637000Y-87483000D01*
X143637000Y-87503000D01*
X144830155Y-87503000D01*
X144951476Y-87273110D01*
X144906825Y-87125901D01*
X144781641Y-86863080D01*
X144607588Y-86629731D01*
X144391355Y-86434822D01*
X144274466Y-86365195D01*
X144456632Y-86243475D01*
X144663475Y-86036632D01*
X144825990Y-85793411D01*
X144937932Y-85523158D01*
X144995000Y-85236260D01*
X144995000Y-84943740D01*
X144937932Y-84656842D01*
X144825990Y-84386589D01*
X144663475Y-84143368D01*
X144531620Y-84011513D01*
X144604180Y-83989502D01*
X144714494Y-83930537D01*
X144811185Y-83851185D01*
X144890537Y-83754494D01*
X144949502Y-83644180D01*
X144985812Y-83524482D01*
X144998072Y-83400000D01*
X144998072Y-81700000D01*
X144985812Y-81575518D01*
X144949502Y-81455820D01*
X144890537Y-81345506D01*
X144811185Y-81248815D01*
X144714494Y-81169463D01*
X144604180Y-81110498D01*
X144484482Y-81074188D01*
X144360000Y-81061928D01*
X142660000Y-81061928D01*
X142535518Y-81074188D01*
X142415820Y-81110498D01*
X142305506Y-81169463D01*
X142208815Y-81248815D01*
X142129463Y-81345506D01*
X142070498Y-81455820D01*
X142034188Y-81575518D01*
X142021928Y-81700000D01*
X139860549Y-81700000D01*
X139915000Y-81426260D01*
X139915000Y-81133740D01*
X139857932Y-80846842D01*
X139766043Y-80625001D01*
X155404894Y-80625001D01*
X155440999Y-80628557D01*
X155477104Y-80625001D01*
X155585084Y-80614366D01*
X155723632Y-80572338D01*
X155851319Y-80504088D01*
X155963237Y-80412239D01*
X155986257Y-80384189D01*
X156376000Y-79994446D01*
X156376000Y-80156260D01*
X156433068Y-80443158D01*
X156545010Y-80713411D01*
X156707525Y-80956632D01*
X156914368Y-81163475D01*
X157157589Y-81325990D01*
X157427842Y-81437932D01*
X157714740Y-81495000D01*
X158007260Y-81495000D01*
X158294158Y-81437932D01*
X158564411Y-81325990D01*
X158807632Y-81163475D01*
X159014475Y-80956632D01*
X159176990Y-80713411D01*
X159288932Y-80443158D01*
X159346000Y-80156260D01*
X159346000Y-79863740D01*
X159288932Y-79576842D01*
X159176990Y-79306589D01*
X159014475Y-79063368D01*
X158807632Y-78856525D01*
X158633240Y-78740000D01*
X158807632Y-78623475D01*
X159014475Y-78416632D01*
X159176990Y-78173411D01*
X159288932Y-77903158D01*
X159346000Y-77616260D01*
X159346000Y-77323740D01*
X159288932Y-77036842D01*
X159176990Y-76766589D01*
X159014475Y-76523368D01*
X158807632Y-76316525D01*
X158633240Y-76200000D01*
X158807632Y-76083475D01*
X159014475Y-75876632D01*
X159176990Y-75633411D01*
X159288932Y-75363158D01*
X159346000Y-75076260D01*
X159346000Y-74783740D01*
X159288932Y-74496842D01*
X159176990Y-74226589D01*
X159014475Y-73983368D01*
X158882620Y-73851513D01*
X158955180Y-73829502D01*
X159065494Y-73770537D01*
X159162185Y-73691185D01*
X159241537Y-73594494D01*
X159300502Y-73484180D01*
X159336812Y-73364482D01*
X159349072Y-73240000D01*
X159346000Y-72675750D01*
X159187250Y-72517000D01*
X157988000Y-72517000D01*
X157988000Y-72537000D01*
X157734000Y-72537000D01*
X157734000Y-72517000D01*
X156534750Y-72517000D01*
X156376000Y-72675750D01*
X156373990Y-73044999D01*
X144846043Y-73044999D01*
X144937932Y-72823158D01*
X144995000Y-72536260D01*
X144995000Y-72243740D01*
X144937932Y-71956842D01*
X144825990Y-71686589D01*
X144728043Y-71540000D01*
X156372928Y-71540000D01*
X156376000Y-72104250D01*
X156534750Y-72263000D01*
X157734000Y-72263000D01*
X157734000Y-71063750D01*
X157988000Y-71063750D01*
X157988000Y-72263000D01*
X159187250Y-72263000D01*
X159346000Y-72104250D01*
X159349072Y-71540000D01*
X159336812Y-71415518D01*
X159300502Y-71295820D01*
X159241537Y-71185506D01*
X159162185Y-71088815D01*
X159065494Y-71009463D01*
X158955180Y-70950498D01*
X158835482Y-70914188D01*
X158711000Y-70901928D01*
X158146750Y-70905000D01*
X157988000Y-71063750D01*
X157734000Y-71063750D01*
X157575250Y-70905000D01*
X157011000Y-70901928D01*
X156886518Y-70914188D01*
X156766820Y-70950498D01*
X156656506Y-71009463D01*
X156559815Y-71088815D01*
X156480463Y-71185506D01*
X156421498Y-71295820D01*
X156385188Y-71415518D01*
X156372928Y-71540000D01*
X144728043Y-71540000D01*
X144663475Y-71443368D01*
X144456632Y-71236525D01*
X144282240Y-71120000D01*
X144456632Y-71003475D01*
X144663475Y-70796632D01*
X144825990Y-70553411D01*
X144937932Y-70283158D01*
X144995000Y-69996260D01*
X144995000Y-69703740D01*
X144937932Y-69416842D01*
X144825990Y-69146589D01*
X144663475Y-68903368D01*
X144456632Y-68696525D01*
X144274466Y-68574805D01*
X144391355Y-68505178D01*
X144607588Y-68310269D01*
X144781641Y-68076920D01*
X144906825Y-67814099D01*
X144951476Y-67666890D01*
X144830155Y-67437000D01*
X143637000Y-67437000D01*
X143637000Y-67457000D01*
X143383000Y-67457000D01*
X143383000Y-67437000D01*
X142189845Y-67437000D01*
X142068524Y-67666890D01*
X142113175Y-67814099D01*
X142238359Y-68076920D01*
X142412412Y-68310269D01*
X142628645Y-68505178D01*
X142745534Y-68574805D01*
X142563368Y-68696525D01*
X142356525Y-68903368D01*
X142194010Y-69146589D01*
X142082068Y-69416842D01*
X142025000Y-69703740D01*
X142025000Y-69996260D01*
X142074656Y-70245897D01*
X141808540Y-70512013D01*
X141773937Y-70460226D01*
X141705000Y-70391289D01*
X141705000Y-66775000D01*
X142127893Y-66775000D01*
X142113175Y-66805901D01*
X142068524Y-66953110D01*
X142189845Y-67183000D01*
X143383000Y-67183000D01*
X143383000Y-67163000D01*
X143637000Y-67163000D01*
X143637000Y-67183000D01*
X144830155Y-67183000D01*
X144951476Y-66953110D01*
X144906825Y-66805901D01*
X144781641Y-66543080D01*
X144607588Y-66309731D01*
X144391355Y-66114822D01*
X144274466Y-66045195D01*
X144456632Y-65923475D01*
X144663475Y-65716632D01*
X144825990Y-65473411D01*
X144937932Y-65203158D01*
X144995000Y-64916260D01*
X144995000Y-64623740D01*
X144937932Y-64336842D01*
X144825990Y-64066589D01*
X144663475Y-63823368D01*
X144531620Y-63691513D01*
X144604180Y-63669502D01*
X144714494Y-63610537D01*
X144811185Y-63531185D01*
X144890537Y-63434494D01*
X144949502Y-63324180D01*
X144985812Y-63204482D01*
X144998072Y-63080000D01*
X144998072Y-61380000D01*
X144985812Y-61255518D01*
X144949502Y-61135820D01*
X144890537Y-61025506D01*
X144811185Y-60928815D01*
X144714494Y-60849463D01*
X144604180Y-60790498D01*
X144484482Y-60754188D01*
X144360000Y-60741928D01*
X142660000Y-60741928D01*
X142535518Y-60754188D01*
X142415820Y-60790498D01*
X142305506Y-60849463D01*
X142208815Y-60928815D01*
X142129463Y-61025506D01*
X142070498Y-61135820D01*
X142034188Y-61255518D01*
X142021928Y-61380000D01*
X142021928Y-63080000D01*
X142034188Y-63204482D01*
X142070498Y-63324180D01*
X142129463Y-63434494D01*
X142208815Y-63531185D01*
X142305506Y-63610537D01*
X142415820Y-63669502D01*
X142488380Y-63691513D01*
X142356525Y-63823368D01*
X142194010Y-64066589D01*
X142082068Y-64336842D01*
X142025000Y-64623740D01*
X142025000Y-64916260D01*
X142074656Y-65165897D01*
X141935554Y-65305000D01*
X141006105Y-65305000D01*
X140970000Y-65301444D01*
X140933895Y-65305000D01*
X140825915Y-65315635D01*
X140687367Y-65357663D01*
X140559680Y-65425913D01*
X140447762Y-65517762D01*
X140355913Y-65629680D01*
X140287663Y-65757367D01*
X140245635Y-65895915D01*
X140231444Y-66040000D01*
X140235001Y-66076115D01*
X140235000Y-70391289D01*
X140166063Y-70460226D01*
X140052795Y-70629744D01*
X139974774Y-70818102D01*
X139935000Y-71018061D01*
X139935000Y-71221939D01*
X139974774Y-71421898D01*
X140052795Y-71610256D01*
X140149510Y-71755000D01*
X140052795Y-71899744D01*
X139974774Y-72088102D01*
X139935000Y-72288061D01*
X139935000Y-72491939D01*
X139974774Y-72691898D01*
X140052795Y-72880256D01*
X140162872Y-73044999D01*
X140048097Y-73044999D01*
X140012002Y-73041444D01*
X139975907Y-73044999D01*
X139975898Y-73044999D01*
X139867918Y-73055634D01*
X139796046Y-73077436D01*
X139745990Y-72956589D01*
X139583475Y-72713368D01*
X139376632Y-72506525D01*
X139202240Y-72390000D01*
X139376632Y-72273475D01*
X139583475Y-72066632D01*
X139745990Y-71823411D01*
X139857932Y-71553158D01*
X139915000Y-71266260D01*
X139915000Y-70973740D01*
X139857932Y-70686842D01*
X139745990Y-70416589D01*
X139583475Y-70173368D01*
X139376632Y-69966525D01*
X139202240Y-69850000D01*
X139376632Y-69733475D01*
X139583475Y-69526632D01*
X139745990Y-69283411D01*
X139857932Y-69013158D01*
X139915000Y-68726260D01*
X139915000Y-68433740D01*
X139857932Y-68146842D01*
X139745990Y-67876589D01*
X139583475Y-67633368D01*
X139376632Y-67426525D01*
X139202240Y-67310000D01*
X139376632Y-67193475D01*
X139583475Y-66986632D01*
X139745990Y-66743411D01*
X139857932Y-66473158D01*
X139915000Y-66186260D01*
X139915000Y-65893740D01*
X139857932Y-65606842D01*
X139745990Y-65336589D01*
X139583475Y-65093368D01*
X139376632Y-64886525D01*
X139194466Y-64764805D01*
X139311355Y-64695178D01*
X139527588Y-64500269D01*
X139701641Y-64266920D01*
X139826825Y-64004099D01*
X139871476Y-63856890D01*
X139750155Y-63627000D01*
X138557000Y-63627000D01*
X138557000Y-63647000D01*
X138303000Y-63647000D01*
X138303000Y-63627000D01*
X137109845Y-63627000D01*
X136988524Y-63856890D01*
X137033175Y-64004099D01*
X137158359Y-64266920D01*
X137332412Y-64500269D01*
X137548645Y-64695178D01*
X137665534Y-64764805D01*
X137483368Y-64886525D01*
X137276525Y-65093368D01*
X137114010Y-65336589D01*
X137002068Y-65606842D01*
X136945000Y-65893740D01*
X136945000Y-66186260D01*
X137002068Y-66473158D01*
X137114010Y-66743411D01*
X137276525Y-66986632D01*
X137483368Y-67193475D01*
X137657760Y-67310000D01*
X137483368Y-67426525D01*
X137276525Y-67633368D01*
X137114010Y-67876589D01*
X137002068Y-68146842D01*
X136945000Y-68433740D01*
X136945000Y-68726260D01*
X137002068Y-69013158D01*
X137114010Y-69283411D01*
X137276525Y-69526632D01*
X137483368Y-69733475D01*
X137657760Y-69850000D01*
X137483368Y-69966525D01*
X137276525Y-70173368D01*
X137114010Y-70416589D01*
X137002068Y-70686842D01*
X136945000Y-70973740D01*
X136945000Y-71266260D01*
X137002068Y-71553158D01*
X137114010Y-71823411D01*
X137276525Y-72066632D01*
X137483368Y-72273475D01*
X137657760Y-72390000D01*
X137483368Y-72506525D01*
X137276525Y-72713368D01*
X137114010Y-72956589D01*
X137002068Y-73226842D01*
X136945000Y-73513740D01*
X136945000Y-73806260D01*
X137002068Y-74093158D01*
X137114010Y-74363411D01*
X137276525Y-74606632D01*
X137279222Y-74609329D01*
X123965808Y-87922744D01*
X123937762Y-87945761D01*
X123845913Y-88057679D01*
X123777663Y-88185366D01*
X123759850Y-88244087D01*
X123735635Y-88323913D01*
X123721444Y-88467998D01*
X123725000Y-88504103D01*
X123725001Y-97485552D01*
X122135000Y-99075553D01*
X122135000Y-98913740D01*
X122077932Y-98626842D01*
X121965990Y-98356589D01*
X121803475Y-98113368D01*
X121596632Y-97906525D01*
X121422240Y-97790000D01*
X121596632Y-97673475D01*
X121803475Y-97466632D01*
X121965990Y-97223411D01*
X122077932Y-96953158D01*
X122135000Y-96666260D01*
X122135000Y-96373740D01*
X122077932Y-96086842D01*
X121965990Y-95816589D01*
X121803475Y-95573368D01*
X121596632Y-95366525D01*
X121422240Y-95250000D01*
X121596632Y-95133475D01*
X121803475Y-94926632D01*
X121965990Y-94683411D01*
X122077932Y-94413158D01*
X122135000Y-94126260D01*
X122135000Y-93833740D01*
X122077932Y-93546842D01*
X121965990Y-93276589D01*
X121803475Y-93033368D01*
X121596632Y-92826525D01*
X121422240Y-92710000D01*
X121596632Y-92593475D01*
X121803475Y-92386632D01*
X121965990Y-92143411D01*
X122077932Y-91873158D01*
X122135000Y-91586260D01*
X122135000Y-91293740D01*
X122077932Y-91006842D01*
X121965990Y-90736589D01*
X121803475Y-90493368D01*
X121596632Y-90286525D01*
X121422240Y-90170000D01*
X121596632Y-90053475D01*
X121803475Y-89846632D01*
X121965990Y-89603411D01*
X122077932Y-89333158D01*
X122135000Y-89046260D01*
X122135000Y-88753740D01*
X122077932Y-88466842D01*
X121965990Y-88196589D01*
X121803475Y-87953368D01*
X121596632Y-87746525D01*
X121422240Y-87630000D01*
X121596632Y-87513475D01*
X121803475Y-87306632D01*
X121965990Y-87063411D01*
X122077932Y-86793158D01*
X122135000Y-86506260D01*
X122135000Y-86213740D01*
X122077932Y-85926842D01*
X121965990Y-85656589D01*
X121803475Y-85413368D01*
X121596632Y-85206525D01*
X121422240Y-85090000D01*
X121596632Y-84973475D01*
X121803475Y-84766632D01*
X121965990Y-84523411D01*
X122077932Y-84253158D01*
X122135000Y-83966260D01*
X122135000Y-83673740D01*
X122077932Y-83386842D01*
X121965990Y-83116589D01*
X121803475Y-82873368D01*
X121596632Y-82666525D01*
X121422240Y-82550000D01*
X121596632Y-82433475D01*
X121803475Y-82226632D01*
X121965990Y-81983411D01*
X122077932Y-81713158D01*
X122135000Y-81426260D01*
X122135000Y-81133740D01*
X122077932Y-80846842D01*
X121965990Y-80576589D01*
X121803475Y-80333368D01*
X121596632Y-80126525D01*
X121422240Y-80010000D01*
X121596632Y-79893475D01*
X121803475Y-79686632D01*
X121965990Y-79443411D01*
X122077932Y-79173158D01*
X122135000Y-78886260D01*
X122135000Y-78593740D01*
X122077932Y-78306842D01*
X121965990Y-78036589D01*
X121803475Y-77793368D01*
X121596632Y-77586525D01*
X121422240Y-77470000D01*
X121596632Y-77353475D01*
X121803475Y-77146632D01*
X121965990Y-76903411D01*
X122077932Y-76633158D01*
X122135000Y-76346260D01*
X122135000Y-76053740D01*
X122077932Y-75766842D01*
X121965990Y-75496589D01*
X121803475Y-75253368D01*
X121596632Y-75046525D01*
X121422240Y-74930000D01*
X121596632Y-74813475D01*
X121803475Y-74606632D01*
X121965990Y-74363411D01*
X122077932Y-74093158D01*
X122135000Y-73806260D01*
X122135000Y-73513740D01*
X122077932Y-73226842D01*
X121965990Y-72956589D01*
X121803475Y-72713368D01*
X121596632Y-72506525D01*
X121422240Y-72390000D01*
X121596632Y-72273475D01*
X121803475Y-72066632D01*
X121965990Y-71823411D01*
X122077932Y-71553158D01*
X122135000Y-71266260D01*
X122135000Y-70973740D01*
X122077932Y-70686842D01*
X121965990Y-70416589D01*
X121803475Y-70173368D01*
X121596632Y-69966525D01*
X121422240Y-69850000D01*
X121596632Y-69733475D01*
X121803475Y-69526632D01*
X121965990Y-69283411D01*
X122077932Y-69013158D01*
X122135000Y-68726260D01*
X122135000Y-68433740D01*
X122077932Y-68146842D01*
X121965990Y-67876589D01*
X121803475Y-67633368D01*
X121596632Y-67426525D01*
X121422240Y-67310000D01*
X121596632Y-67193475D01*
X121803475Y-66986632D01*
X121965990Y-66743411D01*
X122077932Y-66473158D01*
X122135000Y-66186260D01*
X122135000Y-65893740D01*
X122077932Y-65606842D01*
X121965990Y-65336589D01*
X121803475Y-65093368D01*
X121596632Y-64886525D01*
X121414466Y-64764805D01*
X121531355Y-64695178D01*
X121747588Y-64500269D01*
X121921641Y-64266920D01*
X122046825Y-64004099D01*
X122091476Y-63856890D01*
X121970155Y-63627000D01*
X120777000Y-63627000D01*
X120777000Y-63647000D01*
X120523000Y-63647000D01*
X120523000Y-63627000D01*
X119329845Y-63627000D01*
X119208524Y-63856890D01*
X119253175Y-64004099D01*
X119378359Y-64266920D01*
X119552412Y-64500269D01*
X119768645Y-64695178D01*
X119885534Y-64764805D01*
X119703368Y-64886525D01*
X119496525Y-65093368D01*
X119334010Y-65336589D01*
X119222068Y-65606842D01*
X119165000Y-65893740D01*
X114960000Y-65893740D01*
X114960000Y-60110000D01*
X119161928Y-60110000D01*
X119161928Y-61810000D01*
X119174188Y-61934482D01*
X119210498Y-62054180D01*
X119269463Y-62164494D01*
X119348815Y-62261185D01*
X119445506Y-62340537D01*
X119555820Y-62399502D01*
X119636466Y-62423966D01*
X119552412Y-62499731D01*
X119378359Y-62733080D01*
X119253175Y-62995901D01*
X119208524Y-63143110D01*
X119329845Y-63373000D01*
X120523000Y-63373000D01*
X120523000Y-63353000D01*
X120777000Y-63353000D01*
X120777000Y-63373000D01*
X121970155Y-63373000D01*
X122091476Y-63143110D01*
X122046825Y-62995901D01*
X121921641Y-62733080D01*
X121747588Y-62499731D01*
X121663534Y-62423966D01*
X121744180Y-62399502D01*
X121854494Y-62340537D01*
X121951185Y-62261185D01*
X122030537Y-62164494D01*
X122089502Y-62054180D01*
X122125812Y-61934482D01*
X122138072Y-61810000D01*
X122138072Y-60813740D01*
X136945000Y-60813740D01*
X136945000Y-61106260D01*
X137002068Y-61393158D01*
X137114010Y-61663411D01*
X137276525Y-61906632D01*
X137483368Y-62113475D01*
X137665534Y-62235195D01*
X137548645Y-62304822D01*
X137332412Y-62499731D01*
X137158359Y-62733080D01*
X137033175Y-62995901D01*
X136988524Y-63143110D01*
X137109845Y-63373000D01*
X138303000Y-63373000D01*
X138303000Y-63353000D01*
X138557000Y-63353000D01*
X138557000Y-63373000D01*
X139750155Y-63373000D01*
X139871476Y-63143110D01*
X139826825Y-62995901D01*
X139701641Y-62733080D01*
X139527588Y-62499731D01*
X139311355Y-62304822D01*
X139194466Y-62235195D01*
X139376632Y-62113475D01*
X139583475Y-61906632D01*
X139745990Y-61663411D01*
X139857932Y-61393158D01*
X139915000Y-61106260D01*
X139915000Y-60813740D01*
X139857932Y-60526842D01*
X139745990Y-60256589D01*
X139583475Y-60013368D01*
X139376632Y-59806525D01*
X139133411Y-59644010D01*
X138863158Y-59532068D01*
X138576260Y-59475000D01*
X138283740Y-59475000D01*
X137996842Y-59532068D01*
X137726589Y-59644010D01*
X137483368Y-59806525D01*
X137276525Y-60013368D01*
X137114010Y-60256589D01*
X137002068Y-60526842D01*
X136945000Y-60813740D01*
X122138072Y-60813740D01*
X122138072Y-60110000D01*
X122125812Y-59985518D01*
X122089502Y-59865820D01*
X122030537Y-59755506D01*
X121951185Y-59658815D01*
X121854494Y-59579463D01*
X121744180Y-59520498D01*
X121624482Y-59484188D01*
X121500000Y-59471928D01*
X119800000Y-59471928D01*
X119675518Y-59484188D01*
X119555820Y-59520498D01*
X119445506Y-59579463D01*
X119348815Y-59658815D01*
X119269463Y-59755506D01*
X119210498Y-59865820D01*
X119174188Y-59985518D01*
X119161928Y-60110000D01*
X114960000Y-60110000D01*
X114960000Y-55270000D01*
X166980000Y-55270000D01*
X166980001Y-114910000D01*
G37*
X166980001Y-114910000D02*
X114960000Y-114910000D01*
X114960000Y-65893740D01*
X119165000Y-65893740D01*
X119165000Y-66186260D01*
X119222068Y-66473158D01*
X119334010Y-66743411D01*
X119496525Y-66986632D01*
X119703368Y-67193475D01*
X119877760Y-67310000D01*
X119703368Y-67426525D01*
X119496525Y-67633368D01*
X119334010Y-67876589D01*
X119222068Y-68146842D01*
X119165000Y-68433740D01*
X119165000Y-68726260D01*
X119222068Y-69013158D01*
X119334010Y-69283411D01*
X119496525Y-69526632D01*
X119703368Y-69733475D01*
X119877760Y-69850000D01*
X119703368Y-69966525D01*
X119496525Y-70173368D01*
X119334010Y-70416589D01*
X119222068Y-70686842D01*
X119165000Y-70973740D01*
X119165000Y-71266260D01*
X119222068Y-71553158D01*
X119334010Y-71823411D01*
X119496525Y-72066632D01*
X119703368Y-72273475D01*
X119877760Y-72390000D01*
X119703368Y-72506525D01*
X119496525Y-72713368D01*
X119334010Y-72956589D01*
X119222068Y-73226842D01*
X119165000Y-73513740D01*
X119165000Y-73806260D01*
X119222068Y-74093158D01*
X119334010Y-74363411D01*
X119496525Y-74606632D01*
X119703368Y-74813475D01*
X119877760Y-74930000D01*
X119703368Y-75046525D01*
X119496525Y-75253368D01*
X119334010Y-75496589D01*
X119222068Y-75766842D01*
X119165000Y-76053740D01*
X119165000Y-76346260D01*
X119222068Y-76633158D01*
X119334010Y-76903411D01*
X119496525Y-77146632D01*
X119703368Y-77353475D01*
X119877760Y-77470000D01*
X119703368Y-77586525D01*
X119496525Y-77793368D01*
X119334010Y-78036589D01*
X119222068Y-78306842D01*
X119165000Y-78593740D01*
X119165000Y-78886260D01*
X119222068Y-79173158D01*
X119334010Y-79443411D01*
X119496525Y-79686632D01*
X119703368Y-79893475D01*
X119877760Y-80010000D01*
X119703368Y-80126525D01*
X119496525Y-80333368D01*
X119334010Y-80576589D01*
X119222068Y-80846842D01*
X119165000Y-81133740D01*
X119165000Y-81426260D01*
X119222068Y-81713158D01*
X119334010Y-81983411D01*
X119496525Y-82226632D01*
X119703368Y-82433475D01*
X119877760Y-82550000D01*
X119703368Y-82666525D01*
X119496525Y-82873368D01*
X119334010Y-83116589D01*
X119222068Y-83386842D01*
X119165000Y-83673740D01*
X119165000Y-83966260D01*
X119222068Y-84253158D01*
X119334010Y-84523411D01*
X119496525Y-84766632D01*
X119703368Y-84973475D01*
X119877760Y-85090000D01*
X119703368Y-85206525D01*
X119496525Y-85413368D01*
X119334010Y-85656589D01*
X119222068Y-85926842D01*
X119165000Y-86213740D01*
X119165000Y-86506260D01*
X119222068Y-86793158D01*
X119334010Y-87063411D01*
X119496525Y-87306632D01*
X119703368Y-87513475D01*
X119877760Y-87630000D01*
X119703368Y-87746525D01*
X119496525Y-87953368D01*
X119334010Y-88196589D01*
X119222068Y-88466842D01*
X119165000Y-88753740D01*
X119165000Y-89046260D01*
X119222068Y-89333158D01*
X119334010Y-89603411D01*
X119496525Y-89846632D01*
X119703368Y-90053475D01*
X119877760Y-90170000D01*
X119703368Y-90286525D01*
X119496525Y-90493368D01*
X119334010Y-90736589D01*
X119222068Y-91006842D01*
X119165000Y-91293740D01*
X119165000Y-91586260D01*
X119222068Y-91873158D01*
X119334010Y-92143411D01*
X119496525Y-92386632D01*
X119703368Y-92593475D01*
X119877760Y-92710000D01*
X119703368Y-92826525D01*
X119496525Y-93033368D01*
X119334010Y-93276589D01*
X119222068Y-93546842D01*
X119165000Y-93833740D01*
X119165000Y-94126260D01*
X119222068Y-94413158D01*
X119334010Y-94683411D01*
X119496525Y-94926632D01*
X119703368Y-95133475D01*
X119877760Y-95250000D01*
X119703368Y-95366525D01*
X119496525Y-95573368D01*
X119334010Y-95816589D01*
X119222068Y-96086842D01*
X119165000Y-96373740D01*
X119165000Y-96666260D01*
X119222068Y-96953158D01*
X119334010Y-97223411D01*
X119496525Y-97466632D01*
X119703368Y-97673475D01*
X119877760Y-97790000D01*
X119703368Y-97906525D01*
X119496525Y-98113368D01*
X119334010Y-98356589D01*
X119222068Y-98626842D01*
X119165000Y-98913740D01*
X119165000Y-99206260D01*
X119222068Y-99493158D01*
X119334010Y-99763411D01*
X119496525Y-100006632D01*
X119703368Y-100213475D01*
X119877760Y-100330000D01*
X119703368Y-100446525D01*
X119496525Y-100653368D01*
X119334010Y-100896589D01*
X119222068Y-101166842D01*
X119165000Y-101453740D01*
X119165000Y-101746260D01*
X119222068Y-102033158D01*
X119334010Y-102303411D01*
X119496525Y-102546632D01*
X119703368Y-102753475D01*
X119877760Y-102870000D01*
X119703368Y-102986525D01*
X119496525Y-103193368D01*
X119334010Y-103436589D01*
X119222068Y-103706842D01*
X119165000Y-103993740D01*
X119165000Y-104286260D01*
X119222068Y-104573158D01*
X119334010Y-104843411D01*
X119496525Y-105086632D01*
X119703368Y-105293475D01*
X119877760Y-105410000D01*
X119703368Y-105526525D01*
X119496525Y-105733368D01*
X119334010Y-105976589D01*
X119222068Y-106246842D01*
X119165000Y-106533740D01*
X119165000Y-106826260D01*
X119222068Y-107113158D01*
X119334010Y-107383411D01*
X119496525Y-107626632D01*
X119703368Y-107833475D01*
X119877760Y-107950000D01*
X119703368Y-108066525D01*
X119496525Y-108273368D01*
X119334010Y-108516589D01*
X119222068Y-108786842D01*
X119165000Y-109073740D01*
X119165000Y-109366260D01*
X119222068Y-109653158D01*
X119334010Y-109923411D01*
X119496525Y-110166632D01*
X119703368Y-110373475D01*
X119946589Y-110535990D01*
X120216842Y-110647932D01*
X120503740Y-110705000D01*
X120796260Y-110705000D01*
X121083158Y-110647932D01*
X121353411Y-110535990D01*
X121596632Y-110373475D01*
X121803475Y-110166632D01*
X121965990Y-109923411D01*
X122077932Y-109653158D01*
X122135000Y-109366260D01*
X122135000Y-109073740D01*
X122077932Y-108786842D01*
X121965990Y-108516589D01*
X121803475Y-108273368D01*
X121596632Y-108066525D01*
X121422240Y-107950000D01*
X121596632Y-107833475D01*
X121803475Y-107626632D01*
X121965990Y-107383411D01*
X122077932Y-107113158D01*
X122135000Y-106826260D01*
X122135000Y-106533740D01*
X122077932Y-106246842D01*
X121965990Y-105976589D01*
X121803475Y-105733368D01*
X121596632Y-105526525D01*
X121422240Y-105410000D01*
X121596632Y-105293475D01*
X121803475Y-105086632D01*
X121965990Y-104843411D01*
X122077932Y-104573158D01*
X122135000Y-104286260D01*
X122135000Y-103993740D01*
X122077932Y-103706842D01*
X121965990Y-103436589D01*
X121803475Y-103193368D01*
X121596632Y-102986525D01*
X121422240Y-102870000D01*
X121596632Y-102753475D01*
X121803475Y-102546632D01*
X121965990Y-102303411D01*
X122077932Y-102033158D01*
X122135000Y-101746260D01*
X122135000Y-101453740D01*
X122085344Y-101204103D01*
X124954193Y-98335254D01*
X124982238Y-98312238D01*
X125074087Y-98200320D01*
X125128731Y-98098089D01*
X125142337Y-98072634D01*
X125184365Y-97934085D01*
X125198556Y-97790000D01*
X125195000Y-97753895D01*
X125195000Y-91057308D01*
X125239744Y-91087205D01*
X125428102Y-91165226D01*
X125628061Y-91205000D01*
X125725554Y-91205000D01*
X127235000Y-92714447D01*
X127235000Y-92811939D01*
X127274774Y-93011898D01*
X127352795Y-93200256D01*
X127466063Y-93369774D01*
X127610226Y-93513937D01*
X127779744Y-93627205D01*
X127968102Y-93705226D01*
X128168061Y-93745000D01*
X128371939Y-93745000D01*
X128571898Y-93705226D01*
X128760256Y-93627205D01*
X128929774Y-93513937D01*
X129073937Y-93369774D01*
X129187205Y-93200256D01*
X129265226Y-93011898D01*
X129305000Y-92811939D01*
X129305000Y-92608061D01*
X129265226Y-92408102D01*
X129187205Y-92219744D01*
X129073937Y-92050226D01*
X128929774Y-91906063D01*
X128760256Y-91792795D01*
X128571898Y-91714774D01*
X128371939Y-91675000D01*
X128274447Y-91675000D01*
X126765000Y-90165554D01*
X126765000Y-90068061D01*
X126725226Y-89868102D01*
X126647205Y-89679744D01*
X126533937Y-89510226D01*
X126389774Y-89366063D01*
X126220256Y-89252795D01*
X126031898Y-89174774D01*
X125831939Y-89135000D01*
X125628061Y-89135000D01*
X125428102Y-89174774D01*
X125239744Y-89252795D01*
X125195000Y-89282692D01*
X125195000Y-88772444D01*
X137099372Y-76868073D01*
X137114010Y-76903411D01*
X137276525Y-77146632D01*
X137483368Y-77353475D01*
X137657760Y-77470000D01*
X137483368Y-77586525D01*
X137276525Y-77793368D01*
X137114010Y-78036589D01*
X137002068Y-78306842D01*
X136945000Y-78593740D01*
X136945000Y-78886260D01*
X136998456Y-79155001D01*
X135614091Y-79155001D01*
X135577996Y-79151446D01*
X135541901Y-79155001D01*
X135541892Y-79155001D01*
X135433912Y-79165636D01*
X135295364Y-79207664D01*
X135167677Y-79275914D01*
X135055759Y-79367763D01*
X135032743Y-79395808D01*
X129045808Y-85382744D01*
X129017763Y-85405760D01*
X128925914Y-85517678D01*
X128922985Y-85523158D01*
X128857664Y-85645365D01*
X128815635Y-85783913D01*
X128801444Y-85927998D01*
X128805001Y-85964113D01*
X128805000Y-88171289D01*
X128736063Y-88240226D01*
X128622795Y-88409744D01*
X128544774Y-88598102D01*
X128505000Y-88798061D01*
X128505000Y-89001939D01*
X128544774Y-89201898D01*
X128622795Y-89390256D01*
X128736063Y-89559774D01*
X128880226Y-89703937D01*
X129049744Y-89817205D01*
X129238102Y-89895226D01*
X129438061Y-89935000D01*
X129641939Y-89935000D01*
X129841898Y-89895226D01*
X130030256Y-89817205D01*
X130199774Y-89703937D01*
X130343937Y-89559774D01*
X130457205Y-89390256D01*
X130535226Y-89201898D01*
X130575000Y-89001939D01*
X130575000Y-88798061D01*
X130541961Y-88631961D01*
X130708061Y-88665000D01*
X130911939Y-88665000D01*
X131111898Y-88625226D01*
X131300256Y-88547205D01*
X131469774Y-88433937D01*
X131538711Y-88365000D01*
X132621289Y-88365000D01*
X132690226Y-88433937D01*
X132859744Y-88547205D01*
X133048102Y-88625226D01*
X133248061Y-88665000D01*
X133451939Y-88665000D01*
X133651898Y-88625226D01*
X133840256Y-88547205D01*
X134009774Y-88433937D01*
X134153937Y-88289774D01*
X134267205Y-88120256D01*
X134345226Y-87931898D01*
X134385000Y-87731939D01*
X134385000Y-87528061D01*
X134345226Y-87328102D01*
X134267205Y-87139744D01*
X134153937Y-86970226D01*
X134009774Y-86826063D01*
X133840256Y-86712795D01*
X133651898Y-86634774D01*
X133451939Y-86595000D01*
X133248061Y-86595000D01*
X133048102Y-86634774D01*
X132859744Y-86712795D01*
X132690226Y-86826063D01*
X132621289Y-86895000D01*
X131538711Y-86895000D01*
X131469774Y-86826063D01*
X131300256Y-86712795D01*
X131111898Y-86634774D01*
X130911939Y-86595000D01*
X130708061Y-86595000D01*
X130508102Y-86634774D01*
X130319744Y-86712795D01*
X130275000Y-86742692D01*
X130275000Y-86232444D01*
X135882444Y-80625001D01*
X137093957Y-80625001D01*
X137002068Y-80846842D01*
X136945000Y-81133740D01*
X136945000Y-81426260D01*
X137002068Y-81713158D01*
X137114010Y-81983411D01*
X137276525Y-82226632D01*
X137483368Y-82433475D01*
X137657760Y-82550000D01*
X137483368Y-82666525D01*
X137276525Y-82873368D01*
X137114010Y-83116589D01*
X137002068Y-83386842D01*
X136945000Y-83673740D01*
X136945000Y-83966260D01*
X137002068Y-84253158D01*
X137114010Y-84523411D01*
X137276525Y-84766632D01*
X137483368Y-84973475D01*
X137657760Y-85090000D01*
X137483368Y-85206525D01*
X137276525Y-85413368D01*
X137114010Y-85656589D01*
X137002068Y-85926842D01*
X136945000Y-86213740D01*
X136945000Y-86506260D01*
X137002068Y-86793158D01*
X137114010Y-87063411D01*
X137276525Y-87306632D01*
X137483368Y-87513475D01*
X137657760Y-87630000D01*
X137483368Y-87746525D01*
X137276525Y-87953368D01*
X137114010Y-88196589D01*
X137002068Y-88466842D01*
X136945000Y-88753740D01*
X136945000Y-89046260D01*
X137002068Y-89333158D01*
X137114010Y-89603411D01*
X137276525Y-89846632D01*
X137483368Y-90053475D01*
X137657760Y-90170000D01*
X137483368Y-90286525D01*
X137276525Y-90493368D01*
X137114010Y-90736589D01*
X137002068Y-91006842D01*
X136945000Y-91293740D01*
X136945000Y-91586260D01*
X137002068Y-91873158D01*
X137114010Y-92143411D01*
X137276525Y-92386632D01*
X137483368Y-92593475D01*
X137657760Y-92710000D01*
X137483368Y-92826525D01*
X137276525Y-93033368D01*
X137114010Y-93276589D01*
X137002068Y-93546842D01*
X136945000Y-93833740D01*
X136945000Y-94126260D01*
X137002068Y-94413158D01*
X137114010Y-94683411D01*
X137276525Y-94926632D01*
X137483368Y-95133475D01*
X137657760Y-95250000D01*
X137483368Y-95366525D01*
X137276525Y-95573368D01*
X137114010Y-95816589D01*
X137002068Y-96086842D01*
X136945000Y-96373740D01*
X136945000Y-96666260D01*
X137002068Y-96953158D01*
X137114010Y-97223411D01*
X137276525Y-97466632D01*
X137483368Y-97673475D01*
X137657760Y-97790000D01*
X137483368Y-97906525D01*
X137276525Y-98113368D01*
X137114010Y-98356589D01*
X137002068Y-98626842D01*
X136945000Y-98913740D01*
X136945000Y-99206260D01*
X137002068Y-99493158D01*
X137114010Y-99763411D01*
X137276525Y-100006632D01*
X137483368Y-100213475D01*
X137657760Y-100330000D01*
X137483368Y-100446525D01*
X137276525Y-100653368D01*
X137114010Y-100896589D01*
X137002068Y-101166842D01*
X136945000Y-101453740D01*
X136945000Y-101746260D01*
X137002068Y-102033158D01*
X137114010Y-102303411D01*
X137276525Y-102546632D01*
X137483368Y-102753475D01*
X137657760Y-102870000D01*
X137483368Y-102986525D01*
X137276525Y-103193368D01*
X137114010Y-103436589D01*
X137002068Y-103706842D01*
X136945000Y-103993740D01*
X136945000Y-104286260D01*
X137002068Y-104573158D01*
X137114010Y-104843411D01*
X137276525Y-105086632D01*
X137483368Y-105293475D01*
X137657760Y-105410000D01*
X137483368Y-105526525D01*
X137276525Y-105733368D01*
X137114010Y-105976589D01*
X137002068Y-106246842D01*
X136945000Y-106533740D01*
X136945000Y-106826260D01*
X137002068Y-107113158D01*
X137114010Y-107383411D01*
X137276525Y-107626632D01*
X137483368Y-107833475D01*
X137657760Y-107950000D01*
X137483368Y-108066525D01*
X137276525Y-108273368D01*
X137114010Y-108516589D01*
X137002068Y-108786842D01*
X136945000Y-109073740D01*
X136945000Y-109366260D01*
X137002068Y-109653158D01*
X137114010Y-109923411D01*
X137276525Y-110166632D01*
X137483368Y-110373475D01*
X137726589Y-110535990D01*
X137996842Y-110647932D01*
X138283740Y-110705000D01*
X138576260Y-110705000D01*
X138863158Y-110647932D01*
X139133411Y-110535990D01*
X139376632Y-110373475D01*
X139583475Y-110166632D01*
X139745990Y-109923411D01*
X139857932Y-109653158D01*
X139915000Y-109366260D01*
X139915000Y-109073740D01*
X139888774Y-108941891D01*
X147148519Y-108941891D01*
X147245843Y-109216252D01*
X147394822Y-109466355D01*
X147589731Y-109682588D01*
X147823080Y-109856641D01*
X148085901Y-109981825D01*
X148233110Y-110026476D01*
X148463000Y-109905155D01*
X148463000Y-108712000D01*
X147269186Y-108712000D01*
X147148519Y-108941891D01*
X139888774Y-108941891D01*
X139857932Y-108786842D01*
X139745990Y-108516589D01*
X139583475Y-108273368D01*
X139538216Y-108228109D01*
X147148519Y-108228109D01*
X147269186Y-108458000D01*
X148463000Y-108458000D01*
X148463000Y-107264845D01*
X148717000Y-107264845D01*
X148717000Y-108458000D01*
X148737000Y-108458000D01*
X148737000Y-108712000D01*
X148717000Y-108712000D01*
X148717000Y-109905155D01*
X148946890Y-110026476D01*
X149094099Y-109981825D01*
X149356920Y-109856641D01*
X149590269Y-109682588D01*
X149785178Y-109466355D01*
X149854805Y-109349466D01*
X149976525Y-109531632D01*
X150183368Y-109738475D01*
X150426589Y-109900990D01*
X150696842Y-110012932D01*
X150983740Y-110070000D01*
X151276260Y-110070000D01*
X151563158Y-110012932D01*
X151833411Y-109900990D01*
X152076632Y-109738475D01*
X152283475Y-109531632D01*
X152405195Y-109349466D01*
X152474822Y-109466355D01*
X152669731Y-109682588D01*
X152903080Y-109856641D01*
X153165901Y-109981825D01*
X153313110Y-110026476D01*
X153543000Y-109905155D01*
X153543000Y-108712000D01*
X153523000Y-108712000D01*
X153523000Y-108458000D01*
X153543000Y-108458000D01*
X153543000Y-107264845D01*
X153797000Y-107264845D01*
X153797000Y-108458000D01*
X153817000Y-108458000D01*
X153817000Y-108712000D01*
X153797000Y-108712000D01*
X153797000Y-109905155D01*
X154026890Y-110026476D01*
X154174099Y-109981825D01*
X154436920Y-109856641D01*
X154670269Y-109682588D01*
X154746034Y-109598534D01*
X154770498Y-109679180D01*
X154829463Y-109789494D01*
X154908815Y-109886185D01*
X155005506Y-109965537D01*
X155115820Y-110024502D01*
X155235518Y-110060812D01*
X155360000Y-110073072D01*
X157060000Y-110073072D01*
X157184482Y-110060812D01*
X157304180Y-110024502D01*
X157414494Y-109965537D01*
X157511185Y-109886185D01*
X157590537Y-109789494D01*
X157649502Y-109679180D01*
X157685812Y-109559482D01*
X157698072Y-109435000D01*
X157698072Y-107735000D01*
X157685812Y-107610518D01*
X157649502Y-107490820D01*
X157590537Y-107380506D01*
X157511185Y-107283815D01*
X157414494Y-107204463D01*
X157304180Y-107145498D01*
X157184482Y-107109188D01*
X157060000Y-107096928D01*
X155360000Y-107096928D01*
X155235518Y-107109188D01*
X155115820Y-107145498D01*
X155005506Y-107204463D01*
X154908815Y-107283815D01*
X154829463Y-107380506D01*
X154770498Y-107490820D01*
X154746034Y-107571466D01*
X154670269Y-107487412D01*
X154436920Y-107313359D01*
X154174099Y-107188175D01*
X154026890Y-107143524D01*
X153797000Y-107264845D01*
X153543000Y-107264845D01*
X153313110Y-107143524D01*
X153165901Y-107188175D01*
X152903080Y-107313359D01*
X152669731Y-107487412D01*
X152474822Y-107703645D01*
X152405195Y-107820534D01*
X152283475Y-107638368D01*
X152076632Y-107431525D01*
X151833411Y-107269010D01*
X151563158Y-107157068D01*
X151276260Y-107100000D01*
X150983740Y-107100000D01*
X150696842Y-107157068D01*
X150426589Y-107269010D01*
X150183368Y-107431525D01*
X149976525Y-107638368D01*
X149854805Y-107820534D01*
X149785178Y-107703645D01*
X149590269Y-107487412D01*
X149356920Y-107313359D01*
X149094099Y-107188175D01*
X148946890Y-107143524D01*
X148717000Y-107264845D01*
X148463000Y-107264845D01*
X148233110Y-107143524D01*
X148085901Y-107188175D01*
X147823080Y-107313359D01*
X147589731Y-107487412D01*
X147394822Y-107703645D01*
X147245843Y-107953748D01*
X147148519Y-108228109D01*
X139538216Y-108228109D01*
X139376632Y-108066525D01*
X139202240Y-107950000D01*
X139376632Y-107833475D01*
X139583475Y-107626632D01*
X139745990Y-107383411D01*
X139857932Y-107113158D01*
X139915000Y-106826260D01*
X139915000Y-106533740D01*
X139857932Y-106246842D01*
X139745990Y-105976589D01*
X139583475Y-105733368D01*
X139376632Y-105526525D01*
X139202240Y-105410000D01*
X139376632Y-105293475D01*
X139583475Y-105086632D01*
X139745990Y-104843411D01*
X139857932Y-104573158D01*
X139915000Y-104286260D01*
X139915000Y-103993740D01*
X139857932Y-103706842D01*
X139745990Y-103436589D01*
X139583475Y-103193368D01*
X139376632Y-102986525D01*
X139202240Y-102870000D01*
X139376632Y-102753475D01*
X139583475Y-102546632D01*
X139745990Y-102303411D01*
X139759829Y-102270000D01*
X146716928Y-102270000D01*
X146716928Y-103470000D01*
X146729188Y-103594482D01*
X146765498Y-103714180D01*
X146824463Y-103824494D01*
X146903815Y-103921185D01*
X147000506Y-104000537D01*
X147110820Y-104059502D01*
X147230518Y-104095812D01*
X147355000Y-104108072D01*
X148555000Y-104108072D01*
X148679482Y-104095812D01*
X148799180Y-104059502D01*
X148909494Y-104000537D01*
X149006185Y-103921185D01*
X149085537Y-103824494D01*
X149109858Y-103778994D01*
X149167736Y-103836872D01*
X149284842Y-103719766D01*
X149332148Y-103943348D01*
X149553516Y-104044237D01*
X149790313Y-104100000D01*
X150033438Y-104108495D01*
X150273549Y-104069395D01*
X150501418Y-103984202D01*
X150577852Y-103943348D01*
X150625159Y-103719764D01*
X149955000Y-103049605D01*
X149940858Y-103063748D01*
X149761253Y-102884143D01*
X149775395Y-102870000D01*
X150134605Y-102870000D01*
X150804764Y-103540159D01*
X151028348Y-103492852D01*
X151129237Y-103271484D01*
X151185000Y-103034687D01*
X151188013Y-102948438D01*
X152336505Y-102948438D01*
X152375605Y-103188549D01*
X152460798Y-103416418D01*
X152501652Y-103492852D01*
X152725236Y-103540159D01*
X153395395Y-102870000D01*
X152725236Y-102199841D01*
X152501652Y-102247148D01*
X152400763Y-102468516D01*
X152345000Y-102705313D01*
X152336505Y-102948438D01*
X151188013Y-102948438D01*
X151193495Y-102791562D01*
X151154395Y-102551451D01*
X151069202Y-102323582D01*
X151028348Y-102247148D01*
X150804764Y-102199841D01*
X150134605Y-102870000D01*
X149775395Y-102870000D01*
X149761253Y-102855858D01*
X149940858Y-102676253D01*
X149955000Y-102690395D01*
X150625159Y-102020236D01*
X152904841Y-102020236D01*
X153575000Y-102690395D01*
X153589143Y-102676253D01*
X153768748Y-102855858D01*
X153754605Y-102870000D01*
X153768748Y-102884143D01*
X153589143Y-103063748D01*
X153575000Y-103049605D01*
X152904841Y-103719764D01*
X152952148Y-103943348D01*
X153173516Y-104044237D01*
X153410313Y-104100000D01*
X153653438Y-104108495D01*
X153893549Y-104069395D01*
X154121418Y-103984202D01*
X154197852Y-103943348D01*
X154245158Y-103719766D01*
X154362264Y-103836872D01*
X154420142Y-103778994D01*
X154444463Y-103824494D01*
X154523815Y-103921185D01*
X154620506Y-104000537D01*
X154730820Y-104059502D01*
X154850518Y-104095812D01*
X154975000Y-104108072D01*
X156175000Y-104108072D01*
X156299482Y-104095812D01*
X156419180Y-104059502D01*
X156529494Y-104000537D01*
X156626185Y-103921185D01*
X156705537Y-103824494D01*
X156764502Y-103714180D01*
X156800812Y-103594482D01*
X156813072Y-103470000D01*
X156813072Y-102270000D01*
X156800812Y-102145518D01*
X156764502Y-102025820D01*
X156705537Y-101915506D01*
X156626185Y-101818815D01*
X156529494Y-101739463D01*
X156419180Y-101680498D01*
X156299482Y-101644188D01*
X156175000Y-101631928D01*
X154975000Y-101631928D01*
X154850518Y-101644188D01*
X154730820Y-101680498D01*
X154620506Y-101739463D01*
X154523815Y-101818815D01*
X154444463Y-101915506D01*
X154420142Y-101961006D01*
X154362264Y-101903128D01*
X154245158Y-102020234D01*
X154197852Y-101796652D01*
X153976484Y-101695763D01*
X153739687Y-101640000D01*
X153496562Y-101631505D01*
X153256451Y-101670605D01*
X153028582Y-101755798D01*
X152952148Y-101796652D01*
X152904841Y-102020236D01*
X150625159Y-102020236D01*
X150577852Y-101796652D01*
X150356484Y-101695763D01*
X150119687Y-101640000D01*
X149876562Y-101631505D01*
X149636451Y-101670605D01*
X149408582Y-101755798D01*
X149332148Y-101796652D01*
X149284842Y-102020234D01*
X149167736Y-101903128D01*
X149109858Y-101961006D01*
X149085537Y-101915506D01*
X149006185Y-101818815D01*
X148909494Y-101739463D01*
X148799180Y-101680498D01*
X148679482Y-101644188D01*
X148555000Y-101631928D01*
X147355000Y-101631928D01*
X147230518Y-101644188D01*
X147110820Y-101680498D01*
X147000506Y-101739463D01*
X146903815Y-101818815D01*
X146824463Y-101915506D01*
X146765498Y-102025820D01*
X146729188Y-102145518D01*
X146716928Y-102270000D01*
X139759829Y-102270000D01*
X139857932Y-102033158D01*
X139915000Y-101746260D01*
X139915000Y-101453740D01*
X139857932Y-101166842D01*
X139745990Y-100896589D01*
X139583475Y-100653368D01*
X139376632Y-100446525D01*
X139202240Y-100330000D01*
X139376632Y-100213475D01*
X139583475Y-100006632D01*
X139745990Y-99763411D01*
X139857932Y-99493158D01*
X139915000Y-99206260D01*
X139915000Y-98913740D01*
X139857932Y-98626842D01*
X139745990Y-98356589D01*
X139583475Y-98113368D01*
X139376632Y-97906525D01*
X139202240Y-97790000D01*
X139376632Y-97673475D01*
X139583475Y-97466632D01*
X139745990Y-97223411D01*
X139857932Y-96953158D01*
X139915000Y-96666260D01*
X139915000Y-96373740D01*
X139857932Y-96086842D01*
X139745990Y-95816589D01*
X139583475Y-95573368D01*
X139376632Y-95366525D01*
X139202240Y-95250000D01*
X139376632Y-95133475D01*
X139583475Y-94926632D01*
X139745990Y-94683411D01*
X139857932Y-94413158D01*
X139915000Y-94126260D01*
X139915000Y-93833740D01*
X139857932Y-93546842D01*
X139745990Y-93276589D01*
X139583475Y-93033368D01*
X139376632Y-92826525D01*
X139202240Y-92710000D01*
X139376632Y-92593475D01*
X139583475Y-92386632D01*
X139745990Y-92143411D01*
X139857932Y-91873158D01*
X139915000Y-91586260D01*
X139915000Y-91293740D01*
X139857932Y-91006842D01*
X139745990Y-90736589D01*
X139583475Y-90493368D01*
X139376632Y-90286525D01*
X139202240Y-90170000D01*
X139376632Y-90053475D01*
X139406367Y-90023740D01*
X142025000Y-90023740D01*
X142025000Y-90316260D01*
X142082068Y-90603158D01*
X142194010Y-90873411D01*
X142356525Y-91116632D01*
X142563368Y-91323475D01*
X142737760Y-91440000D01*
X142563368Y-91556525D01*
X142356525Y-91763368D01*
X142194010Y-92006589D01*
X142082068Y-92276842D01*
X142025000Y-92563740D01*
X142025000Y-92856260D01*
X142082068Y-93143158D01*
X142194010Y-93413411D01*
X142356525Y-93656632D01*
X142563368Y-93863475D01*
X142737760Y-93980000D01*
X142563368Y-94096525D01*
X142356525Y-94303368D01*
X142194010Y-94546589D01*
X142082068Y-94816842D01*
X142025000Y-95103740D01*
X142025000Y-95396260D01*
X142082068Y-95683158D01*
X142194010Y-95953411D01*
X142356525Y-96196632D01*
X142563368Y-96403475D01*
X142737760Y-96520000D01*
X142563368Y-96636525D01*
X142356525Y-96843368D01*
X142194010Y-97086589D01*
X142082068Y-97356842D01*
X142025000Y-97643740D01*
X142025000Y-97936260D01*
X142082068Y-98223158D01*
X142194010Y-98493411D01*
X142356525Y-98736632D01*
X142563368Y-98943475D01*
X142737760Y-99060000D01*
X142563368Y-99176525D01*
X142356525Y-99383368D01*
X142194010Y-99626589D01*
X142082068Y-99896842D01*
X142025000Y-100183740D01*
X142025000Y-100476260D01*
X142082068Y-100763158D01*
X142194010Y-101033411D01*
X142356525Y-101276632D01*
X142563368Y-101483475D01*
X142806589Y-101645990D01*
X143076842Y-101757932D01*
X143363740Y-101815000D01*
X143656260Y-101815000D01*
X143943158Y-101757932D01*
X144213411Y-101645990D01*
X144456632Y-101483475D01*
X144663475Y-101276632D01*
X144825990Y-101033411D01*
X144937932Y-100763158D01*
X144995000Y-100476260D01*
X144995000Y-100183740D01*
X144937932Y-99896842D01*
X144825990Y-99626589D01*
X144663475Y-99383368D01*
X144456632Y-99176525D01*
X144282240Y-99060000D01*
X144456632Y-98943475D01*
X144663475Y-98736632D01*
X144825990Y-98493411D01*
X144937932Y-98223158D01*
X144995000Y-97936260D01*
X144995000Y-97643740D01*
X144937932Y-97356842D01*
X144825990Y-97086589D01*
X144787854Y-97029514D01*
X148272500Y-97029514D01*
X148272500Y-97280485D01*
X148295470Y-97513703D01*
X148386245Y-97812948D01*
X148533655Y-98088734D01*
X148732037Y-98330463D01*
X148973765Y-98528845D01*
X149249551Y-98676255D01*
X149548796Y-98767030D01*
X149860000Y-98797681D01*
X150171203Y-98767030D01*
X150470448Y-98676255D01*
X150746234Y-98528845D01*
X150987963Y-98330463D01*
X151135163Y-98151101D01*
X151290563Y-98336315D01*
X151533077Y-98530969D01*
X151808906Y-98674571D01*
X152027020Y-98745563D01*
X152273000Y-98625594D01*
X152273000Y-97282000D01*
X152253000Y-97282000D01*
X152253000Y-97028000D01*
X152273000Y-97028000D01*
X152273000Y-95684406D01*
X152527000Y-95684406D01*
X152527000Y-97028000D01*
X152547000Y-97028000D01*
X152547000Y-97282000D01*
X152527000Y-97282000D01*
X152527000Y-98625594D01*
X152772980Y-98745563D01*
X152991094Y-98674571D01*
X153266923Y-98530969D01*
X153407941Y-98417781D01*
X153456963Y-98509494D01*
X153536315Y-98606185D01*
X153633006Y-98685537D01*
X153743320Y-98744502D01*
X153863018Y-98780812D01*
X153987500Y-98793072D01*
X155892500Y-98793072D01*
X156016982Y-98780812D01*
X156136680Y-98744502D01*
X156246994Y-98685537D01*
X156343685Y-98606185D01*
X156423037Y-98509494D01*
X156482002Y-98399180D01*
X156518312Y-98279482D01*
X156530572Y-98155000D01*
X156530572Y-96155000D01*
X156518312Y-96030518D01*
X156482002Y-95910820D01*
X156423037Y-95800506D01*
X156343685Y-95703815D01*
X156246994Y-95624463D01*
X156136680Y-95565498D01*
X156016982Y-95529188D01*
X155892500Y-95516928D01*
X153987500Y-95516928D01*
X153863018Y-95529188D01*
X153743320Y-95565498D01*
X153633006Y-95624463D01*
X153536315Y-95703815D01*
X153456963Y-95800506D01*
X153407941Y-95892219D01*
X153266923Y-95779031D01*
X152991094Y-95635429D01*
X152772980Y-95564437D01*
X152527000Y-95684406D01*
X152273000Y-95684406D01*
X152027020Y-95564437D01*
X151808906Y-95635429D01*
X151533077Y-95779031D01*
X151290563Y-95973685D01*
X151135162Y-96158900D01*
X150987963Y-95979537D01*
X150746235Y-95781155D01*
X150470449Y-95633745D01*
X150171204Y-95542970D01*
X149860000Y-95512319D01*
X149548797Y-95542970D01*
X149249552Y-95633745D01*
X148973766Y-95781155D01*
X148732037Y-95979537D01*
X148533655Y-96221265D01*
X148386245Y-96497051D01*
X148295470Y-96796296D01*
X148272500Y-97029514D01*
X144787854Y-97029514D01*
X144663475Y-96843368D01*
X144456632Y-96636525D01*
X144282240Y-96520000D01*
X144456632Y-96403475D01*
X144663475Y-96196632D01*
X144825990Y-95953411D01*
X144937932Y-95683158D01*
X144995000Y-95396260D01*
X144995000Y-95103740D01*
X144937932Y-94816842D01*
X144825990Y-94546589D01*
X144663475Y-94303368D01*
X144456632Y-94096525D01*
X144282240Y-93980000D01*
X144456632Y-93863475D01*
X144663475Y-93656632D01*
X144825990Y-93413411D01*
X144937932Y-93143158D01*
X144995000Y-92856260D01*
X144995000Y-92563740D01*
X144937932Y-92276842D01*
X144825990Y-92006589D01*
X144663475Y-91763368D01*
X144456632Y-91556525D01*
X144282240Y-91440000D01*
X144456632Y-91323475D01*
X144663475Y-91116632D01*
X144825990Y-90873411D01*
X144937932Y-90603158D01*
X144995000Y-90316260D01*
X144995000Y-90023740D01*
X144937932Y-89736842D01*
X144825990Y-89466589D01*
X144663475Y-89223368D01*
X144456632Y-89016525D01*
X144274466Y-88894805D01*
X144391355Y-88825178D01*
X144607588Y-88630269D01*
X144781641Y-88396920D01*
X144906825Y-88134099D01*
X144951476Y-87986890D01*
X144830155Y-87757000D01*
X143637000Y-87757000D01*
X143637000Y-87777000D01*
X143383000Y-87777000D01*
X143383000Y-87757000D01*
X142189845Y-87757000D01*
X142068524Y-87986890D01*
X142113175Y-88134099D01*
X142238359Y-88396920D01*
X142412412Y-88630269D01*
X142628645Y-88825178D01*
X142745534Y-88894805D01*
X142563368Y-89016525D01*
X142356525Y-89223368D01*
X142194010Y-89466589D01*
X142082068Y-89736842D01*
X142025000Y-90023740D01*
X139406367Y-90023740D01*
X139583475Y-89846632D01*
X139745990Y-89603411D01*
X139857932Y-89333158D01*
X139915000Y-89046260D01*
X139915000Y-88753740D01*
X139857932Y-88466842D01*
X139745990Y-88196589D01*
X139583475Y-87953368D01*
X139376632Y-87746525D01*
X139202240Y-87630000D01*
X139376632Y-87513475D01*
X139583475Y-87306632D01*
X139745990Y-87063411D01*
X139857932Y-86793158D01*
X139915000Y-86506260D01*
X139915000Y-86213740D01*
X139857932Y-85926842D01*
X139745990Y-85656589D01*
X139583475Y-85413368D01*
X139376632Y-85206525D01*
X139202240Y-85090000D01*
X139376632Y-84973475D01*
X139583475Y-84766632D01*
X139745990Y-84523411D01*
X139857932Y-84253158D01*
X139915000Y-83966260D01*
X139915000Y-83673740D01*
X139857932Y-83386842D01*
X139745990Y-83116589D01*
X139583475Y-82873368D01*
X139376632Y-82666525D01*
X139202240Y-82550000D01*
X139376632Y-82433475D01*
X139583475Y-82226632D01*
X139745990Y-81983411D01*
X139857932Y-81713158D01*
X139860549Y-81700000D01*
X142021928Y-81700000D01*
X142021928Y-83400000D01*
X142034188Y-83524482D01*
X142070498Y-83644180D01*
X142129463Y-83754494D01*
X142208815Y-83851185D01*
X142305506Y-83930537D01*
X142415820Y-83989502D01*
X142488380Y-84011513D01*
X142356525Y-84143368D01*
X142194010Y-84386589D01*
X142082068Y-84656842D01*
X142025000Y-84943740D01*
X142025000Y-85236260D01*
X142082068Y-85523158D01*
X142194010Y-85793411D01*
X142356525Y-86036632D01*
X142563368Y-86243475D01*
X142745534Y-86365195D01*
X142628645Y-86434822D01*
X142412412Y-86629731D01*
X142238359Y-86863080D01*
X142113175Y-87125901D01*
X142068524Y-87273110D01*
X142189845Y-87503000D01*
X143383000Y-87503000D01*
X143383000Y-87483000D01*
X143637000Y-87483000D01*
X143637000Y-87503000D01*
X144830155Y-87503000D01*
X144951476Y-87273110D01*
X144906825Y-87125901D01*
X144781641Y-86863080D01*
X144607588Y-86629731D01*
X144391355Y-86434822D01*
X144274466Y-86365195D01*
X144456632Y-86243475D01*
X144663475Y-86036632D01*
X144825990Y-85793411D01*
X144937932Y-85523158D01*
X144995000Y-85236260D01*
X144995000Y-84943740D01*
X144937932Y-84656842D01*
X144825990Y-84386589D01*
X144663475Y-84143368D01*
X144531620Y-84011513D01*
X144604180Y-83989502D01*
X144714494Y-83930537D01*
X144811185Y-83851185D01*
X144890537Y-83754494D01*
X144949502Y-83644180D01*
X144985812Y-83524482D01*
X144998072Y-83400000D01*
X144998072Y-81700000D01*
X144985812Y-81575518D01*
X144949502Y-81455820D01*
X144890537Y-81345506D01*
X144811185Y-81248815D01*
X144714494Y-81169463D01*
X144604180Y-81110498D01*
X144484482Y-81074188D01*
X144360000Y-81061928D01*
X142660000Y-81061928D01*
X142535518Y-81074188D01*
X142415820Y-81110498D01*
X142305506Y-81169463D01*
X142208815Y-81248815D01*
X142129463Y-81345506D01*
X142070498Y-81455820D01*
X142034188Y-81575518D01*
X142021928Y-81700000D01*
X139860549Y-81700000D01*
X139915000Y-81426260D01*
X139915000Y-81133740D01*
X139857932Y-80846842D01*
X139766043Y-80625001D01*
X155404894Y-80625001D01*
X155440999Y-80628557D01*
X155477104Y-80625001D01*
X155585084Y-80614366D01*
X155723632Y-80572338D01*
X155851319Y-80504088D01*
X155963237Y-80412239D01*
X155986257Y-80384189D01*
X156376000Y-79994446D01*
X156376000Y-80156260D01*
X156433068Y-80443158D01*
X156545010Y-80713411D01*
X156707525Y-80956632D01*
X156914368Y-81163475D01*
X157157589Y-81325990D01*
X157427842Y-81437932D01*
X157714740Y-81495000D01*
X158007260Y-81495000D01*
X158294158Y-81437932D01*
X158564411Y-81325990D01*
X158807632Y-81163475D01*
X159014475Y-80956632D01*
X159176990Y-80713411D01*
X159288932Y-80443158D01*
X159346000Y-80156260D01*
X159346000Y-79863740D01*
X159288932Y-79576842D01*
X159176990Y-79306589D01*
X159014475Y-79063368D01*
X158807632Y-78856525D01*
X158633240Y-78740000D01*
X158807632Y-78623475D01*
X159014475Y-78416632D01*
X159176990Y-78173411D01*
X159288932Y-77903158D01*
X159346000Y-77616260D01*
X159346000Y-77323740D01*
X159288932Y-77036842D01*
X159176990Y-76766589D01*
X159014475Y-76523368D01*
X158807632Y-76316525D01*
X158633240Y-76200000D01*
X158807632Y-76083475D01*
X159014475Y-75876632D01*
X159176990Y-75633411D01*
X159288932Y-75363158D01*
X159346000Y-75076260D01*
X159346000Y-74783740D01*
X159288932Y-74496842D01*
X159176990Y-74226589D01*
X159014475Y-73983368D01*
X158882620Y-73851513D01*
X158955180Y-73829502D01*
X159065494Y-73770537D01*
X159162185Y-73691185D01*
X159241537Y-73594494D01*
X159300502Y-73484180D01*
X159336812Y-73364482D01*
X159349072Y-73240000D01*
X159346000Y-72675750D01*
X159187250Y-72517000D01*
X157988000Y-72517000D01*
X157988000Y-72537000D01*
X157734000Y-72537000D01*
X157734000Y-72517000D01*
X156534750Y-72517000D01*
X156376000Y-72675750D01*
X156373990Y-73044999D01*
X144846043Y-73044999D01*
X144937932Y-72823158D01*
X144995000Y-72536260D01*
X144995000Y-72243740D01*
X144937932Y-71956842D01*
X144825990Y-71686589D01*
X144728043Y-71540000D01*
X156372928Y-71540000D01*
X156376000Y-72104250D01*
X156534750Y-72263000D01*
X157734000Y-72263000D01*
X157734000Y-71063750D01*
X157988000Y-71063750D01*
X157988000Y-72263000D01*
X159187250Y-72263000D01*
X159346000Y-72104250D01*
X159349072Y-71540000D01*
X159336812Y-71415518D01*
X159300502Y-71295820D01*
X159241537Y-71185506D01*
X159162185Y-71088815D01*
X159065494Y-71009463D01*
X158955180Y-70950498D01*
X158835482Y-70914188D01*
X158711000Y-70901928D01*
X158146750Y-70905000D01*
X157988000Y-71063750D01*
X157734000Y-71063750D01*
X157575250Y-70905000D01*
X157011000Y-70901928D01*
X156886518Y-70914188D01*
X156766820Y-70950498D01*
X156656506Y-71009463D01*
X156559815Y-71088815D01*
X156480463Y-71185506D01*
X156421498Y-71295820D01*
X156385188Y-71415518D01*
X156372928Y-71540000D01*
X144728043Y-71540000D01*
X144663475Y-71443368D01*
X144456632Y-71236525D01*
X144282240Y-71120000D01*
X144456632Y-71003475D01*
X144663475Y-70796632D01*
X144825990Y-70553411D01*
X144937932Y-70283158D01*
X144995000Y-69996260D01*
X144995000Y-69703740D01*
X144937932Y-69416842D01*
X144825990Y-69146589D01*
X144663475Y-68903368D01*
X144456632Y-68696525D01*
X144274466Y-68574805D01*
X144391355Y-68505178D01*
X144607588Y-68310269D01*
X144781641Y-68076920D01*
X144906825Y-67814099D01*
X144951476Y-67666890D01*
X144830155Y-67437000D01*
X143637000Y-67437000D01*
X143637000Y-67457000D01*
X143383000Y-67457000D01*
X143383000Y-67437000D01*
X142189845Y-67437000D01*
X142068524Y-67666890D01*
X142113175Y-67814099D01*
X142238359Y-68076920D01*
X142412412Y-68310269D01*
X142628645Y-68505178D01*
X142745534Y-68574805D01*
X142563368Y-68696525D01*
X142356525Y-68903368D01*
X142194010Y-69146589D01*
X142082068Y-69416842D01*
X142025000Y-69703740D01*
X142025000Y-69996260D01*
X142074656Y-70245897D01*
X141808540Y-70512013D01*
X141773937Y-70460226D01*
X141705000Y-70391289D01*
X141705000Y-66775000D01*
X142127893Y-66775000D01*
X142113175Y-66805901D01*
X142068524Y-66953110D01*
X142189845Y-67183000D01*
X143383000Y-67183000D01*
X143383000Y-67163000D01*
X143637000Y-67163000D01*
X143637000Y-67183000D01*
X144830155Y-67183000D01*
X144951476Y-66953110D01*
X144906825Y-66805901D01*
X144781641Y-66543080D01*
X144607588Y-66309731D01*
X144391355Y-66114822D01*
X144274466Y-66045195D01*
X144456632Y-65923475D01*
X144663475Y-65716632D01*
X144825990Y-65473411D01*
X144937932Y-65203158D01*
X144995000Y-64916260D01*
X144995000Y-64623740D01*
X144937932Y-64336842D01*
X144825990Y-64066589D01*
X144663475Y-63823368D01*
X144531620Y-63691513D01*
X144604180Y-63669502D01*
X144714494Y-63610537D01*
X144811185Y-63531185D01*
X144890537Y-63434494D01*
X144949502Y-63324180D01*
X144985812Y-63204482D01*
X144998072Y-63080000D01*
X144998072Y-61380000D01*
X144985812Y-61255518D01*
X144949502Y-61135820D01*
X144890537Y-61025506D01*
X144811185Y-60928815D01*
X144714494Y-60849463D01*
X144604180Y-60790498D01*
X144484482Y-60754188D01*
X144360000Y-60741928D01*
X142660000Y-60741928D01*
X142535518Y-60754188D01*
X142415820Y-60790498D01*
X142305506Y-60849463D01*
X142208815Y-60928815D01*
X142129463Y-61025506D01*
X142070498Y-61135820D01*
X142034188Y-61255518D01*
X142021928Y-61380000D01*
X142021928Y-63080000D01*
X142034188Y-63204482D01*
X142070498Y-63324180D01*
X142129463Y-63434494D01*
X142208815Y-63531185D01*
X142305506Y-63610537D01*
X142415820Y-63669502D01*
X142488380Y-63691513D01*
X142356525Y-63823368D01*
X142194010Y-64066589D01*
X142082068Y-64336842D01*
X142025000Y-64623740D01*
X142025000Y-64916260D01*
X142074656Y-65165897D01*
X141935554Y-65305000D01*
X141006105Y-65305000D01*
X140970000Y-65301444D01*
X140933895Y-65305000D01*
X140825915Y-65315635D01*
X140687367Y-65357663D01*
X140559680Y-65425913D01*
X140447762Y-65517762D01*
X140355913Y-65629680D01*
X140287663Y-65757367D01*
X140245635Y-65895915D01*
X140231444Y-66040000D01*
X140235001Y-66076115D01*
X140235000Y-70391289D01*
X140166063Y-70460226D01*
X140052795Y-70629744D01*
X139974774Y-70818102D01*
X139935000Y-71018061D01*
X139935000Y-71221939D01*
X139974774Y-71421898D01*
X140052795Y-71610256D01*
X140149510Y-71755000D01*
X140052795Y-71899744D01*
X139974774Y-72088102D01*
X139935000Y-72288061D01*
X139935000Y-72491939D01*
X139974774Y-72691898D01*
X140052795Y-72880256D01*
X140162872Y-73044999D01*
X140048097Y-73044999D01*
X140012002Y-73041444D01*
X139975907Y-73044999D01*
X139975898Y-73044999D01*
X139867918Y-73055634D01*
X139796046Y-73077436D01*
X139745990Y-72956589D01*
X139583475Y-72713368D01*
X139376632Y-72506525D01*
X139202240Y-72390000D01*
X139376632Y-72273475D01*
X139583475Y-72066632D01*
X139745990Y-71823411D01*
X139857932Y-71553158D01*
X139915000Y-71266260D01*
X139915000Y-70973740D01*
X139857932Y-70686842D01*
X139745990Y-70416589D01*
X139583475Y-70173368D01*
X139376632Y-69966525D01*
X139202240Y-69850000D01*
X139376632Y-69733475D01*
X139583475Y-69526632D01*
X139745990Y-69283411D01*
X139857932Y-69013158D01*
X139915000Y-68726260D01*
X139915000Y-68433740D01*
X139857932Y-68146842D01*
X139745990Y-67876589D01*
X139583475Y-67633368D01*
X139376632Y-67426525D01*
X139202240Y-67310000D01*
X139376632Y-67193475D01*
X139583475Y-66986632D01*
X139745990Y-66743411D01*
X139857932Y-66473158D01*
X139915000Y-66186260D01*
X139915000Y-65893740D01*
X139857932Y-65606842D01*
X139745990Y-65336589D01*
X139583475Y-65093368D01*
X139376632Y-64886525D01*
X139194466Y-64764805D01*
X139311355Y-64695178D01*
X139527588Y-64500269D01*
X139701641Y-64266920D01*
X139826825Y-64004099D01*
X139871476Y-63856890D01*
X139750155Y-63627000D01*
X138557000Y-63627000D01*
X138557000Y-63647000D01*
X138303000Y-63647000D01*
X138303000Y-63627000D01*
X137109845Y-63627000D01*
X136988524Y-63856890D01*
X137033175Y-64004099D01*
X137158359Y-64266920D01*
X137332412Y-64500269D01*
X137548645Y-64695178D01*
X137665534Y-64764805D01*
X137483368Y-64886525D01*
X137276525Y-65093368D01*
X137114010Y-65336589D01*
X137002068Y-65606842D01*
X136945000Y-65893740D01*
X136945000Y-66186260D01*
X137002068Y-66473158D01*
X137114010Y-66743411D01*
X137276525Y-66986632D01*
X137483368Y-67193475D01*
X137657760Y-67310000D01*
X137483368Y-67426525D01*
X137276525Y-67633368D01*
X137114010Y-67876589D01*
X137002068Y-68146842D01*
X136945000Y-68433740D01*
X136945000Y-68726260D01*
X137002068Y-69013158D01*
X137114010Y-69283411D01*
X137276525Y-69526632D01*
X137483368Y-69733475D01*
X137657760Y-69850000D01*
X137483368Y-69966525D01*
X137276525Y-70173368D01*
X137114010Y-70416589D01*
X137002068Y-70686842D01*
X136945000Y-70973740D01*
X136945000Y-71266260D01*
X137002068Y-71553158D01*
X137114010Y-71823411D01*
X137276525Y-72066632D01*
X137483368Y-72273475D01*
X137657760Y-72390000D01*
X137483368Y-72506525D01*
X137276525Y-72713368D01*
X137114010Y-72956589D01*
X137002068Y-73226842D01*
X136945000Y-73513740D01*
X136945000Y-73806260D01*
X137002068Y-74093158D01*
X137114010Y-74363411D01*
X137276525Y-74606632D01*
X137279222Y-74609329D01*
X123965808Y-87922744D01*
X123937762Y-87945761D01*
X123845913Y-88057679D01*
X123777663Y-88185366D01*
X123759850Y-88244087D01*
X123735635Y-88323913D01*
X123721444Y-88467998D01*
X123725000Y-88504103D01*
X123725001Y-97485552D01*
X122135000Y-99075553D01*
X122135000Y-98913740D01*
X122077932Y-98626842D01*
X121965990Y-98356589D01*
X121803475Y-98113368D01*
X121596632Y-97906525D01*
X121422240Y-97790000D01*
X121596632Y-97673475D01*
X121803475Y-97466632D01*
X121965990Y-97223411D01*
X122077932Y-96953158D01*
X122135000Y-96666260D01*
X122135000Y-96373740D01*
X122077932Y-96086842D01*
X121965990Y-95816589D01*
X121803475Y-95573368D01*
X121596632Y-95366525D01*
X121422240Y-95250000D01*
X121596632Y-95133475D01*
X121803475Y-94926632D01*
X121965990Y-94683411D01*
X122077932Y-94413158D01*
X122135000Y-94126260D01*
X122135000Y-93833740D01*
X122077932Y-93546842D01*
X121965990Y-93276589D01*
X121803475Y-93033368D01*
X121596632Y-92826525D01*
X121422240Y-92710000D01*
X121596632Y-92593475D01*
X121803475Y-92386632D01*
X121965990Y-92143411D01*
X122077932Y-91873158D01*
X122135000Y-91586260D01*
X122135000Y-91293740D01*
X122077932Y-91006842D01*
X121965990Y-90736589D01*
X121803475Y-90493368D01*
X121596632Y-90286525D01*
X121422240Y-90170000D01*
X121596632Y-90053475D01*
X121803475Y-89846632D01*
X121965990Y-89603411D01*
X122077932Y-89333158D01*
X122135000Y-89046260D01*
X122135000Y-88753740D01*
X122077932Y-88466842D01*
X121965990Y-88196589D01*
X121803475Y-87953368D01*
X121596632Y-87746525D01*
X121422240Y-87630000D01*
X121596632Y-87513475D01*
X121803475Y-87306632D01*
X121965990Y-87063411D01*
X122077932Y-86793158D01*
X122135000Y-86506260D01*
X122135000Y-86213740D01*
X122077932Y-85926842D01*
X121965990Y-85656589D01*
X121803475Y-85413368D01*
X121596632Y-85206525D01*
X121422240Y-85090000D01*
X121596632Y-84973475D01*
X121803475Y-84766632D01*
X121965990Y-84523411D01*
X122077932Y-84253158D01*
X122135000Y-83966260D01*
X122135000Y-83673740D01*
X122077932Y-83386842D01*
X121965990Y-83116589D01*
X121803475Y-82873368D01*
X121596632Y-82666525D01*
X121422240Y-82550000D01*
X121596632Y-82433475D01*
X121803475Y-82226632D01*
X121965990Y-81983411D01*
X122077932Y-81713158D01*
X122135000Y-81426260D01*
X122135000Y-81133740D01*
X122077932Y-80846842D01*
X121965990Y-80576589D01*
X121803475Y-80333368D01*
X121596632Y-80126525D01*
X121422240Y-80010000D01*
X121596632Y-79893475D01*
X121803475Y-79686632D01*
X121965990Y-79443411D01*
X122077932Y-79173158D01*
X122135000Y-78886260D01*
X122135000Y-78593740D01*
X122077932Y-78306842D01*
X121965990Y-78036589D01*
X121803475Y-77793368D01*
X121596632Y-77586525D01*
X121422240Y-77470000D01*
X121596632Y-77353475D01*
X121803475Y-77146632D01*
X121965990Y-76903411D01*
X122077932Y-76633158D01*
X122135000Y-76346260D01*
X122135000Y-76053740D01*
X122077932Y-75766842D01*
X121965990Y-75496589D01*
X121803475Y-75253368D01*
X121596632Y-75046525D01*
X121422240Y-74930000D01*
X121596632Y-74813475D01*
X121803475Y-74606632D01*
X121965990Y-74363411D01*
X122077932Y-74093158D01*
X122135000Y-73806260D01*
X122135000Y-73513740D01*
X122077932Y-73226842D01*
X121965990Y-72956589D01*
X121803475Y-72713368D01*
X121596632Y-72506525D01*
X121422240Y-72390000D01*
X121596632Y-72273475D01*
X121803475Y-72066632D01*
X121965990Y-71823411D01*
X122077932Y-71553158D01*
X122135000Y-71266260D01*
X122135000Y-70973740D01*
X122077932Y-70686842D01*
X121965990Y-70416589D01*
X121803475Y-70173368D01*
X121596632Y-69966525D01*
X121422240Y-69850000D01*
X121596632Y-69733475D01*
X121803475Y-69526632D01*
X121965990Y-69283411D01*
X122077932Y-69013158D01*
X122135000Y-68726260D01*
X122135000Y-68433740D01*
X122077932Y-68146842D01*
X121965990Y-67876589D01*
X121803475Y-67633368D01*
X121596632Y-67426525D01*
X121422240Y-67310000D01*
X121596632Y-67193475D01*
X121803475Y-66986632D01*
X121965990Y-66743411D01*
X122077932Y-66473158D01*
X122135000Y-66186260D01*
X122135000Y-65893740D01*
X122077932Y-65606842D01*
X121965990Y-65336589D01*
X121803475Y-65093368D01*
X121596632Y-64886525D01*
X121414466Y-64764805D01*
X121531355Y-64695178D01*
X121747588Y-64500269D01*
X121921641Y-64266920D01*
X122046825Y-64004099D01*
X122091476Y-63856890D01*
X121970155Y-63627000D01*
X120777000Y-63627000D01*
X120777000Y-63647000D01*
X120523000Y-63647000D01*
X120523000Y-63627000D01*
X119329845Y-63627000D01*
X119208524Y-63856890D01*
X119253175Y-64004099D01*
X119378359Y-64266920D01*
X119552412Y-64500269D01*
X119768645Y-64695178D01*
X119885534Y-64764805D01*
X119703368Y-64886525D01*
X119496525Y-65093368D01*
X119334010Y-65336589D01*
X119222068Y-65606842D01*
X119165000Y-65893740D01*
X114960000Y-65893740D01*
X114960000Y-60110000D01*
X119161928Y-60110000D01*
X119161928Y-61810000D01*
X119174188Y-61934482D01*
X119210498Y-62054180D01*
X119269463Y-62164494D01*
X119348815Y-62261185D01*
X119445506Y-62340537D01*
X119555820Y-62399502D01*
X119636466Y-62423966D01*
X119552412Y-62499731D01*
X119378359Y-62733080D01*
X119253175Y-62995901D01*
X119208524Y-63143110D01*
X119329845Y-63373000D01*
X120523000Y-63373000D01*
X120523000Y-63353000D01*
X120777000Y-63353000D01*
X120777000Y-63373000D01*
X121970155Y-63373000D01*
X122091476Y-63143110D01*
X122046825Y-62995901D01*
X121921641Y-62733080D01*
X121747588Y-62499731D01*
X121663534Y-62423966D01*
X121744180Y-62399502D01*
X121854494Y-62340537D01*
X121951185Y-62261185D01*
X122030537Y-62164494D01*
X122089502Y-62054180D01*
X122125812Y-61934482D01*
X122138072Y-61810000D01*
X122138072Y-60813740D01*
X136945000Y-60813740D01*
X136945000Y-61106260D01*
X137002068Y-61393158D01*
X137114010Y-61663411D01*
X137276525Y-61906632D01*
X137483368Y-62113475D01*
X137665534Y-62235195D01*
X137548645Y-62304822D01*
X137332412Y-62499731D01*
X137158359Y-62733080D01*
X137033175Y-62995901D01*
X136988524Y-63143110D01*
X137109845Y-63373000D01*
X138303000Y-63373000D01*
X138303000Y-63353000D01*
X138557000Y-63353000D01*
X138557000Y-63373000D01*
X139750155Y-63373000D01*
X139871476Y-63143110D01*
X139826825Y-62995901D01*
X139701641Y-62733080D01*
X139527588Y-62499731D01*
X139311355Y-62304822D01*
X139194466Y-62235195D01*
X139376632Y-62113475D01*
X139583475Y-61906632D01*
X139745990Y-61663411D01*
X139857932Y-61393158D01*
X139915000Y-61106260D01*
X139915000Y-60813740D01*
X139857932Y-60526842D01*
X139745990Y-60256589D01*
X139583475Y-60013368D01*
X139376632Y-59806525D01*
X139133411Y-59644010D01*
X138863158Y-59532068D01*
X138576260Y-59475000D01*
X138283740Y-59475000D01*
X137996842Y-59532068D01*
X137726589Y-59644010D01*
X137483368Y-59806525D01*
X137276525Y-60013368D01*
X137114010Y-60256589D01*
X137002068Y-60526842D01*
X136945000Y-60813740D01*
X122138072Y-60813740D01*
X122138072Y-60110000D01*
X122125812Y-59985518D01*
X122089502Y-59865820D01*
X122030537Y-59755506D01*
X121951185Y-59658815D01*
X121854494Y-59579463D01*
X121744180Y-59520498D01*
X121624482Y-59484188D01*
X121500000Y-59471928D01*
X119800000Y-59471928D01*
X119675518Y-59484188D01*
X119555820Y-59520498D01*
X119445506Y-59579463D01*
X119348815Y-59658815D01*
X119269463Y-59755506D01*
X119210498Y-59865820D01*
X119174188Y-59985518D01*
X119161928Y-60110000D01*
X114960000Y-60110000D01*
X114960000Y-55270000D01*
X166980000Y-55270000D01*
X166980001Y-114910000D01*
M02*
