G04 #@! TF.GenerationSoftware,KiCad,Pcbnew,(5.1.5)-3*
G04 #@! TF.CreationDate,2020-03-02T23:39:02-06:00*
G04 #@! TF.ProjectId,PMT_PCB,504d545f-5043-4422-9e6b-696361645f70,rev?*
G04 #@! TF.SameCoordinates,Original*
G04 #@! TF.FileFunction,Legend,Top*
G04 #@! TF.FilePolarity,Positive*
%FSLAX46Y46*%
G04 Gerber Fmt 4.6, Leading zero omitted, Abs format (unit mm)*
G04 Created by KiCad (PCBNEW (5.1.5)-3) date 2020-03-02 23:39:02*
%MOMM*%
%LPD*%
G04 APERTURE LIST*
%ADD10C,0.150000*%
%ADD11C,0.120000*%
G04 APERTURE END LIST*
D10*
X133143809Y-65492380D02*
X133762857Y-65492380D01*
X133429523Y-65873333D01*
X133572380Y-65873333D01*
X133667619Y-65920952D01*
X133715238Y-65968571D01*
X133762857Y-66063809D01*
X133762857Y-66301904D01*
X133715238Y-66397142D01*
X133667619Y-66444761D01*
X133572380Y-66492380D01*
X133286666Y-66492380D01*
X133191428Y-66444761D01*
X133143809Y-66397142D01*
X134191428Y-66397142D02*
X134239047Y-66444761D01*
X134191428Y-66492380D01*
X134143809Y-66444761D01*
X134191428Y-66397142D01*
X134191428Y-66492380D01*
X134572380Y-65492380D02*
X135191428Y-65492380D01*
X134858095Y-65873333D01*
X135000952Y-65873333D01*
X135096190Y-65920952D01*
X135143809Y-65968571D01*
X135191428Y-66063809D01*
X135191428Y-66301904D01*
X135143809Y-66397142D01*
X135096190Y-66444761D01*
X135000952Y-66492380D01*
X134715238Y-66492380D01*
X134620000Y-66444761D01*
X134572380Y-66397142D01*
X135477142Y-65492380D02*
X135810476Y-66492380D01*
X136143809Y-65492380D01*
X122983809Y-60412380D02*
X123602857Y-60412380D01*
X123269523Y-60793333D01*
X123412380Y-60793333D01*
X123507619Y-60840952D01*
X123555238Y-60888571D01*
X123602857Y-60983809D01*
X123602857Y-61221904D01*
X123555238Y-61317142D01*
X123507619Y-61364761D01*
X123412380Y-61412380D01*
X123126666Y-61412380D01*
X123031428Y-61364761D01*
X122983809Y-61317142D01*
X124031428Y-61317142D02*
X124079047Y-61364761D01*
X124031428Y-61412380D01*
X123983809Y-61364761D01*
X124031428Y-61317142D01*
X124031428Y-61412380D01*
X124412380Y-60412380D02*
X125031428Y-60412380D01*
X124698095Y-60793333D01*
X124840952Y-60793333D01*
X124936190Y-60840952D01*
X124983809Y-60888571D01*
X125031428Y-60983809D01*
X125031428Y-61221904D01*
X124983809Y-61317142D01*
X124936190Y-61364761D01*
X124840952Y-61412380D01*
X124555238Y-61412380D01*
X124460000Y-61364761D01*
X124412380Y-61317142D01*
X125317142Y-60412380D02*
X125650476Y-61412380D01*
X125983809Y-60412380D01*
X145843809Y-71842380D02*
X146462857Y-71842380D01*
X146129523Y-72223333D01*
X146272380Y-72223333D01*
X146367619Y-72270952D01*
X146415238Y-72318571D01*
X146462857Y-72413809D01*
X146462857Y-72651904D01*
X146415238Y-72747142D01*
X146367619Y-72794761D01*
X146272380Y-72842380D01*
X145986666Y-72842380D01*
X145891428Y-72794761D01*
X145843809Y-72747142D01*
X146891428Y-72747142D02*
X146939047Y-72794761D01*
X146891428Y-72842380D01*
X146843809Y-72794761D01*
X146891428Y-72747142D01*
X146891428Y-72842380D01*
X147272380Y-71842380D02*
X147891428Y-71842380D01*
X147558095Y-72223333D01*
X147700952Y-72223333D01*
X147796190Y-72270952D01*
X147843809Y-72318571D01*
X147891428Y-72413809D01*
X147891428Y-72651904D01*
X147843809Y-72747142D01*
X147796190Y-72794761D01*
X147700952Y-72842380D01*
X147415238Y-72842380D01*
X147320000Y-72794761D01*
X147272380Y-72747142D01*
X148177142Y-71842380D02*
X148510476Y-72842380D01*
X148843809Y-71842380D01*
X145843809Y-82002380D02*
X146462857Y-82002380D01*
X146129523Y-82383333D01*
X146272380Y-82383333D01*
X146367619Y-82430952D01*
X146415238Y-82478571D01*
X146462857Y-82573809D01*
X146462857Y-82811904D01*
X146415238Y-82907142D01*
X146367619Y-82954761D01*
X146272380Y-83002380D01*
X145986666Y-83002380D01*
X145891428Y-82954761D01*
X145843809Y-82907142D01*
X146891428Y-82907142D02*
X146939047Y-82954761D01*
X146891428Y-83002380D01*
X146843809Y-82954761D01*
X146891428Y-82907142D01*
X146891428Y-83002380D01*
X147272380Y-82002380D02*
X147891428Y-82002380D01*
X147558095Y-82383333D01*
X147700952Y-82383333D01*
X147796190Y-82430952D01*
X147843809Y-82478571D01*
X147891428Y-82573809D01*
X147891428Y-82811904D01*
X147843809Y-82907142D01*
X147796190Y-82954761D01*
X147700952Y-83002380D01*
X147415238Y-83002380D01*
X147320000Y-82954761D01*
X147272380Y-82907142D01*
X148177142Y-82002380D02*
X148510476Y-83002380D01*
X148843809Y-82002380D01*
X155829047Y-110561428D02*
X156590952Y-110561428D01*
X156210000Y-110942380D02*
X156210000Y-110180476D01*
X153289047Y-110561428D02*
X154050952Y-110561428D01*
X150749047Y-110561428D02*
X151510952Y-110561428D01*
X151130000Y-110942380D02*
X151130000Y-110180476D01*
X148209047Y-110561428D02*
X148970952Y-110561428D01*
X123349523Y-57872380D02*
X123349523Y-58681904D01*
X123397142Y-58777142D01*
X123444761Y-58824761D01*
X123540000Y-58872380D01*
X123730476Y-58872380D01*
X123825714Y-58824761D01*
X123873333Y-58777142D01*
X123920952Y-58681904D01*
X123920952Y-57872380D01*
X124349523Y-58824761D02*
X124492380Y-58872380D01*
X124730476Y-58872380D01*
X124825714Y-58824761D01*
X124873333Y-58777142D01*
X124920952Y-58681904D01*
X124920952Y-58586666D01*
X124873333Y-58491428D01*
X124825714Y-58443809D01*
X124730476Y-58396190D01*
X124540000Y-58348571D01*
X124444761Y-58300952D01*
X124397142Y-58253333D01*
X124349523Y-58158095D01*
X124349523Y-58062857D01*
X124397142Y-57967619D01*
X124444761Y-57920000D01*
X124540000Y-57872380D01*
X124778095Y-57872380D01*
X124920952Y-57920000D01*
X125682857Y-58348571D02*
X125825714Y-58396190D01*
X125873333Y-58443809D01*
X125920952Y-58539047D01*
X125920952Y-58681904D01*
X125873333Y-58777142D01*
X125825714Y-58824761D01*
X125730476Y-58872380D01*
X125349523Y-58872380D01*
X125349523Y-57872380D01*
X125682857Y-57872380D01*
X125778095Y-57920000D01*
X125825714Y-57967619D01*
X125873333Y-58062857D01*
X125873333Y-58158095D01*
X125825714Y-58253333D01*
X125778095Y-58300952D01*
X125682857Y-58348571D01*
X125349523Y-58348571D01*
X127111428Y-58872380D02*
X127111428Y-57872380D01*
X127492380Y-57872380D01*
X127587619Y-57920000D01*
X127635238Y-57967619D01*
X127682857Y-58062857D01*
X127682857Y-58205714D01*
X127635238Y-58300952D01*
X127587619Y-58348571D01*
X127492380Y-58396190D01*
X127111428Y-58396190D01*
X128111428Y-58872380D02*
X128111428Y-58205714D01*
X128111428Y-58396190D02*
X128159047Y-58300952D01*
X128206666Y-58253333D01*
X128301904Y-58205714D01*
X128397142Y-58205714D01*
X128873333Y-58872380D02*
X128778095Y-58824761D01*
X128730476Y-58777142D01*
X128682857Y-58681904D01*
X128682857Y-58396190D01*
X128730476Y-58300952D01*
X128778095Y-58253333D01*
X128873333Y-58205714D01*
X129016190Y-58205714D01*
X129111428Y-58253333D01*
X129159047Y-58300952D01*
X129206666Y-58396190D01*
X129206666Y-58681904D01*
X129159047Y-58777142D01*
X129111428Y-58824761D01*
X129016190Y-58872380D01*
X128873333Y-58872380D01*
X130063809Y-58205714D02*
X130063809Y-59015238D01*
X130016190Y-59110476D01*
X129968571Y-59158095D01*
X129873333Y-59205714D01*
X129730476Y-59205714D01*
X129635238Y-59158095D01*
X130063809Y-58824761D02*
X129968571Y-58872380D01*
X129778095Y-58872380D01*
X129682857Y-58824761D01*
X129635238Y-58777142D01*
X129587619Y-58681904D01*
X129587619Y-58396190D01*
X129635238Y-58300952D01*
X129682857Y-58253333D01*
X129778095Y-58205714D01*
X129968571Y-58205714D01*
X130063809Y-58253333D01*
X130540000Y-58872380D02*
X130540000Y-58205714D01*
X130540000Y-58396190D02*
X130587619Y-58300952D01*
X130635238Y-58253333D01*
X130730476Y-58205714D01*
X130825714Y-58205714D01*
X131587619Y-58872380D02*
X131587619Y-58348571D01*
X131540000Y-58253333D01*
X131444761Y-58205714D01*
X131254285Y-58205714D01*
X131159047Y-58253333D01*
X131587619Y-58824761D02*
X131492380Y-58872380D01*
X131254285Y-58872380D01*
X131159047Y-58824761D01*
X131111428Y-58729523D01*
X131111428Y-58634285D01*
X131159047Y-58539047D01*
X131254285Y-58491428D01*
X131492380Y-58491428D01*
X131587619Y-58443809D01*
X132063809Y-58872380D02*
X132063809Y-58205714D01*
X132063809Y-58300952D02*
X132111428Y-58253333D01*
X132206666Y-58205714D01*
X132349523Y-58205714D01*
X132444761Y-58253333D01*
X132492380Y-58348571D01*
X132492380Y-58872380D01*
X132492380Y-58348571D02*
X132540000Y-58253333D01*
X132635238Y-58205714D01*
X132778095Y-58205714D01*
X132873333Y-58253333D01*
X132920952Y-58348571D01*
X132920952Y-58872380D01*
X133397142Y-58872380D02*
X133397142Y-58205714D01*
X133397142Y-58300952D02*
X133444761Y-58253333D01*
X133540000Y-58205714D01*
X133682857Y-58205714D01*
X133778095Y-58253333D01*
X133825714Y-58348571D01*
X133825714Y-58872380D01*
X133825714Y-58348571D02*
X133873333Y-58253333D01*
X133968571Y-58205714D01*
X134111428Y-58205714D01*
X134206666Y-58253333D01*
X134254285Y-58348571D01*
X134254285Y-58872380D01*
X135111428Y-58824761D02*
X135016190Y-58872380D01*
X134825714Y-58872380D01*
X134730476Y-58824761D01*
X134682857Y-58729523D01*
X134682857Y-58348571D01*
X134730476Y-58253333D01*
X134825714Y-58205714D01*
X135016190Y-58205714D01*
X135111428Y-58253333D01*
X135159047Y-58348571D01*
X135159047Y-58443809D01*
X134682857Y-58539047D01*
X135587619Y-58872380D02*
X135587619Y-58205714D01*
X135587619Y-58396190D02*
X135635238Y-58300952D01*
X135682857Y-58253333D01*
X135778095Y-58205714D01*
X135873333Y-58205714D01*
D11*
X141732000Y-80645000D02*
X141732000Y-102108000D01*
X162052000Y-80645000D02*
X141732000Y-80645000D01*
X162052000Y-80772000D02*
X162052000Y-80645000D01*
X162052000Y-80899000D02*
X162052000Y-80772000D01*
X162052000Y-81788000D02*
X162052000Y-80899000D01*
X162052000Y-102108000D02*
X162052000Y-81788000D01*
X141732000Y-102108000D02*
X162052000Y-102108000D01*
X143510000Y-81220000D02*
X144840000Y-81220000D01*
X144840000Y-81220000D02*
X144840000Y-82550000D01*
X144840000Y-83820000D02*
X144840000Y-101660000D01*
X142180000Y-101660000D02*
X144840000Y-101660000D01*
X142180000Y-83820000D02*
X142180000Y-101660000D01*
X142180000Y-83820000D02*
X144840000Y-83820000D01*
X157540000Y-107255000D02*
X157540000Y-108585000D01*
X156210000Y-107255000D02*
X157540000Y-107255000D01*
X154940000Y-107255000D02*
X154940000Y-109915000D01*
X154940000Y-109915000D02*
X147260000Y-109915000D01*
X154940000Y-107255000D02*
X147260000Y-107255000D01*
X147260000Y-107255000D02*
X147260000Y-109915000D01*
X142180000Y-78800000D02*
X144840000Y-78800000D01*
X142180000Y-63500000D02*
X142180000Y-78800000D01*
X144840000Y-63500000D02*
X144840000Y-78800000D01*
X142180000Y-63500000D02*
X144840000Y-63500000D01*
X142180000Y-62230000D02*
X142180000Y-60900000D01*
X142180000Y-60900000D02*
X143510000Y-60900000D01*
X141732000Y-79756000D02*
X162814000Y-79756000D01*
X162814000Y-79756000D02*
X162814000Y-59690000D01*
X141732000Y-59690000D02*
X141732000Y-79756000D01*
X162814000Y-59690000D02*
X141732000Y-59690000D01*
X122047000Y-59630000D02*
X139700000Y-59630000D01*
X121920000Y-59630000D02*
X122047000Y-59630000D01*
X119320000Y-59630000D02*
X121920000Y-59630000D01*
X119320000Y-59630000D02*
X119320000Y-110550000D01*
X139760000Y-110550000D02*
X139700000Y-59563000D01*
X119320000Y-110550000D02*
X139760000Y-110550000D01*
X137100000Y-62230000D02*
X139760000Y-62230000D01*
X137100000Y-60960000D02*
X137100000Y-59630000D01*
X137100000Y-59630000D02*
X138430000Y-59630000D01*
X137100000Y-62230000D02*
X137100000Y-110550000D01*
X137100000Y-110550000D02*
X139760000Y-110550000D01*
X139760000Y-62230000D02*
X139760000Y-110550000D01*
X119320000Y-62230000D02*
X121980000Y-62230000D01*
X119320000Y-60960000D02*
X119320000Y-59630000D01*
X119320000Y-59630000D02*
X120650000Y-59630000D01*
X119320000Y-62230000D02*
X119320000Y-110550000D01*
X119320000Y-110550000D02*
X121980000Y-110550000D01*
X121980000Y-62230000D02*
X121980000Y-110550000D01*
D10*
X149844761Y-85256666D02*
X150320952Y-85256666D01*
X149749523Y-85542380D02*
X150082857Y-84542380D01*
X150416190Y-85542380D01*
X151178095Y-85494761D02*
X151082857Y-85542380D01*
X150892380Y-85542380D01*
X150797142Y-85494761D01*
X150749523Y-85447142D01*
X150701904Y-85351904D01*
X150701904Y-85066190D01*
X150749523Y-84970952D01*
X150797142Y-84923333D01*
X150892380Y-84875714D01*
X151082857Y-84875714D01*
X151178095Y-84923333D01*
X152035238Y-85494761D02*
X151940000Y-85542380D01*
X151749523Y-85542380D01*
X151654285Y-85494761D01*
X151606666Y-85447142D01*
X151559047Y-85351904D01*
X151559047Y-85066190D01*
X151606666Y-84970952D01*
X151654285Y-84923333D01*
X151749523Y-84875714D01*
X151940000Y-84875714D01*
X152035238Y-84923333D01*
X152844761Y-85494761D02*
X152749523Y-85542380D01*
X152559047Y-85542380D01*
X152463809Y-85494761D01*
X152416190Y-85399523D01*
X152416190Y-85018571D01*
X152463809Y-84923333D01*
X152559047Y-84875714D01*
X152749523Y-84875714D01*
X152844761Y-84923333D01*
X152892380Y-85018571D01*
X152892380Y-85113809D01*
X152416190Y-85209047D01*
X153463809Y-85542380D02*
X153368571Y-85494761D01*
X153320952Y-85399523D01*
X153320952Y-84542380D01*
X154225714Y-85494761D02*
X154130476Y-85542380D01*
X153940000Y-85542380D01*
X153844761Y-85494761D01*
X153797142Y-85399523D01*
X153797142Y-85018571D01*
X153844761Y-84923333D01*
X153940000Y-84875714D01*
X154130476Y-84875714D01*
X154225714Y-84923333D01*
X154273333Y-85018571D01*
X154273333Y-85113809D01*
X153797142Y-85209047D01*
X154701904Y-85542380D02*
X154701904Y-84875714D01*
X154701904Y-85066190D02*
X154749523Y-84970952D01*
X154797142Y-84923333D01*
X154892380Y-84875714D01*
X154987619Y-84875714D01*
X155463809Y-85542380D02*
X155368571Y-85494761D01*
X155320952Y-85447142D01*
X155273333Y-85351904D01*
X155273333Y-85066190D01*
X155320952Y-84970952D01*
X155368571Y-84923333D01*
X155463809Y-84875714D01*
X155606666Y-84875714D01*
X155701904Y-84923333D01*
X155749523Y-84970952D01*
X155797142Y-85066190D01*
X155797142Y-85351904D01*
X155749523Y-85447142D01*
X155701904Y-85494761D01*
X155606666Y-85542380D01*
X155463809Y-85542380D01*
X156225714Y-85542380D02*
X156225714Y-84875714D01*
X156225714Y-84970952D02*
X156273333Y-84923333D01*
X156368571Y-84875714D01*
X156511428Y-84875714D01*
X156606666Y-84923333D01*
X156654285Y-85018571D01*
X156654285Y-85542380D01*
X156654285Y-85018571D02*
X156701904Y-84923333D01*
X156797142Y-84875714D01*
X156940000Y-84875714D01*
X157035238Y-84923333D01*
X157082857Y-85018571D01*
X157082857Y-85542380D01*
X157940000Y-85494761D02*
X157844761Y-85542380D01*
X157654285Y-85542380D01*
X157559047Y-85494761D01*
X157511428Y-85399523D01*
X157511428Y-85018571D01*
X157559047Y-84923333D01*
X157654285Y-84875714D01*
X157844761Y-84875714D01*
X157940000Y-84923333D01*
X157987619Y-85018571D01*
X157987619Y-85113809D01*
X157511428Y-85209047D01*
X158273333Y-84875714D02*
X158654285Y-84875714D01*
X158416190Y-84542380D02*
X158416190Y-85399523D01*
X158463809Y-85494761D01*
X158559047Y-85542380D01*
X158654285Y-85542380D01*
X159368571Y-85494761D02*
X159273333Y-85542380D01*
X159082857Y-85542380D01*
X158987619Y-85494761D01*
X158940000Y-85399523D01*
X158940000Y-85018571D01*
X158987619Y-84923333D01*
X159082857Y-84875714D01*
X159273333Y-84875714D01*
X159368571Y-84923333D01*
X159416190Y-85018571D01*
X159416190Y-85113809D01*
X158940000Y-85209047D01*
X159844761Y-85542380D02*
X159844761Y-84875714D01*
X159844761Y-85066190D02*
X159892380Y-84970952D01*
X159940000Y-84923333D01*
X160035238Y-84875714D01*
X160130476Y-84875714D01*
X144495238Y-111212380D02*
X145114285Y-111212380D01*
X144780952Y-111593333D01*
X144923809Y-111593333D01*
X145019047Y-111640952D01*
X145066666Y-111688571D01*
X145114285Y-111783809D01*
X145114285Y-112021904D01*
X145066666Y-112117142D01*
X145019047Y-112164761D01*
X144923809Y-112212380D01*
X144638095Y-112212380D01*
X144542857Y-112164761D01*
X144495238Y-112117142D01*
X145542857Y-112117142D02*
X145590476Y-112164761D01*
X145542857Y-112212380D01*
X145495238Y-112164761D01*
X145542857Y-112117142D01*
X145542857Y-112212380D01*
X145923809Y-111212380D02*
X146590476Y-111212380D01*
X146161904Y-112212380D01*
X146971428Y-111831428D02*
X147733333Y-111831428D01*
X148733333Y-112212380D02*
X148161904Y-112212380D01*
X148447619Y-112212380D02*
X148447619Y-111212380D01*
X148352380Y-111355238D01*
X148257142Y-111450476D01*
X148161904Y-111498095D01*
X149114285Y-111307619D02*
X149161904Y-111260000D01*
X149257142Y-111212380D01*
X149495238Y-111212380D01*
X149590476Y-111260000D01*
X149638095Y-111307619D01*
X149685714Y-111402857D01*
X149685714Y-111498095D01*
X149638095Y-111640952D01*
X149066666Y-112212380D01*
X149685714Y-112212380D01*
X149971428Y-111212380D02*
X150304761Y-112212380D01*
X150638095Y-111212380D01*
X151733333Y-112212380D02*
X151733333Y-111212380D01*
X152114285Y-111212380D01*
X152209523Y-111260000D01*
X152257142Y-111307619D01*
X152304761Y-111402857D01*
X152304761Y-111545714D01*
X152257142Y-111640952D01*
X152209523Y-111688571D01*
X152114285Y-111736190D01*
X151733333Y-111736190D01*
X152876190Y-112212380D02*
X152780952Y-112164761D01*
X152733333Y-112117142D01*
X152685714Y-112021904D01*
X152685714Y-111736190D01*
X152733333Y-111640952D01*
X152780952Y-111593333D01*
X152876190Y-111545714D01*
X153019047Y-111545714D01*
X153114285Y-111593333D01*
X153161904Y-111640952D01*
X153209523Y-111736190D01*
X153209523Y-112021904D01*
X153161904Y-112117142D01*
X153114285Y-112164761D01*
X153019047Y-112212380D01*
X152876190Y-112212380D01*
X153542857Y-111545714D02*
X153733333Y-112212380D01*
X153923809Y-111736190D01*
X154114285Y-112212380D01*
X154304761Y-111545714D01*
X155066666Y-112164761D02*
X154971428Y-112212380D01*
X154780952Y-112212380D01*
X154685714Y-112164761D01*
X154638095Y-112069523D01*
X154638095Y-111688571D01*
X154685714Y-111593333D01*
X154780952Y-111545714D01*
X154971428Y-111545714D01*
X155066666Y-111593333D01*
X155114285Y-111688571D01*
X155114285Y-111783809D01*
X154638095Y-111879047D01*
X155542857Y-112212380D02*
X155542857Y-111545714D01*
X155542857Y-111736190D02*
X155590476Y-111640952D01*
X155638095Y-111593333D01*
X155733333Y-111545714D01*
X155828571Y-111545714D01*
X156923809Y-112212380D02*
X156923809Y-111212380D01*
X157400000Y-111545714D02*
X157400000Y-112212380D01*
X157400000Y-111640952D02*
X157447619Y-111593333D01*
X157542857Y-111545714D01*
X157685714Y-111545714D01*
X157780952Y-111593333D01*
X157828571Y-111688571D01*
X157828571Y-112212380D01*
X158304761Y-111545714D02*
X158304761Y-112545714D01*
X158304761Y-111593333D02*
X158400000Y-111545714D01*
X158590476Y-111545714D01*
X158685714Y-111593333D01*
X158733333Y-111640952D01*
X158780952Y-111736190D01*
X158780952Y-112021904D01*
X158733333Y-112117142D01*
X158685714Y-112164761D01*
X158590476Y-112212380D01*
X158400000Y-112212380D01*
X158304761Y-112164761D01*
X159638095Y-111545714D02*
X159638095Y-112212380D01*
X159209523Y-111545714D02*
X159209523Y-112069523D01*
X159257142Y-112164761D01*
X159352380Y-112212380D01*
X159495238Y-112212380D01*
X159590476Y-112164761D01*
X159638095Y-112117142D01*
X159971428Y-111545714D02*
X160352380Y-111545714D01*
X160114285Y-111212380D02*
X160114285Y-112069523D01*
X160161904Y-112164761D01*
X160257142Y-112212380D01*
X160352380Y-112212380D01*
X149824046Y-61745761D02*
X149966903Y-61793380D01*
X150204999Y-61793380D01*
X150300237Y-61745761D01*
X150347856Y-61698142D01*
X150395475Y-61602904D01*
X150395475Y-61507666D01*
X150347856Y-61412428D01*
X150300237Y-61364809D01*
X150204999Y-61317190D01*
X150014522Y-61269571D01*
X149919284Y-61221952D01*
X149871665Y-61174333D01*
X149824046Y-61079095D01*
X149824046Y-60983857D01*
X149871665Y-60888619D01*
X149919284Y-60841000D01*
X150014522Y-60793380D01*
X150252618Y-60793380D01*
X150395475Y-60841000D01*
X150824046Y-61793380D02*
X150824046Y-60793380D01*
X151062141Y-60793380D01*
X151204999Y-60841000D01*
X151300237Y-60936238D01*
X151347856Y-61031476D01*
X151395475Y-61221952D01*
X151395475Y-61364809D01*
X151347856Y-61555285D01*
X151300237Y-61650523D01*
X151204999Y-61745761D01*
X151062141Y-61793380D01*
X150824046Y-61793380D01*
X151585951Y-61888619D02*
X152347856Y-61888619D01*
X153157379Y-61698142D02*
X153109760Y-61745761D01*
X152966903Y-61793380D01*
X152871665Y-61793380D01*
X152728808Y-61745761D01*
X152633570Y-61650523D01*
X152585951Y-61555285D01*
X152538332Y-61364809D01*
X152538332Y-61221952D01*
X152585951Y-61031476D01*
X152633570Y-60936238D01*
X152728808Y-60841000D01*
X152871665Y-60793380D01*
X152966903Y-60793380D01*
X153109760Y-60841000D01*
X153157379Y-60888619D01*
X154014522Y-61793380D02*
X154014522Y-61269571D01*
X153966903Y-61174333D01*
X153871665Y-61126714D01*
X153681189Y-61126714D01*
X153585951Y-61174333D01*
X154014522Y-61745761D02*
X153919284Y-61793380D01*
X153681189Y-61793380D01*
X153585951Y-61745761D01*
X153538332Y-61650523D01*
X153538332Y-61555285D01*
X153585951Y-61460047D01*
X153681189Y-61412428D01*
X153919284Y-61412428D01*
X154014522Y-61364809D01*
X154490713Y-61793380D02*
X154490713Y-61126714D01*
X154490713Y-61317190D02*
X154538332Y-61221952D01*
X154585951Y-61174333D01*
X154681189Y-61126714D01*
X154776427Y-61126714D01*
X155538332Y-61793380D02*
X155538332Y-60793380D01*
X155538332Y-61745761D02*
X155443094Y-61793380D01*
X155252618Y-61793380D01*
X155157379Y-61745761D01*
X155109760Y-61698142D01*
X155062141Y-61602904D01*
X155062141Y-61317190D01*
X155109760Y-61221952D01*
X155157379Y-61174333D01*
X155252618Y-61126714D01*
X155443094Y-61126714D01*
X155538332Y-61174333D01*
X124040000Y-73588571D02*
X124373333Y-73588571D01*
X124516190Y-74112380D02*
X124040000Y-74112380D01*
X124040000Y-73112380D01*
X124516190Y-73112380D01*
X124897142Y-74064761D02*
X125040000Y-74112380D01*
X125278095Y-74112380D01*
X125373333Y-74064761D01*
X125420952Y-74017142D01*
X125468571Y-73921904D01*
X125468571Y-73826666D01*
X125420952Y-73731428D01*
X125373333Y-73683809D01*
X125278095Y-73636190D01*
X125087619Y-73588571D01*
X124992380Y-73540952D01*
X124944761Y-73493333D01*
X124897142Y-73398095D01*
X124897142Y-73302857D01*
X124944761Y-73207619D01*
X124992380Y-73160000D01*
X125087619Y-73112380D01*
X125325714Y-73112380D01*
X125468571Y-73160000D01*
X125897142Y-74112380D02*
X125897142Y-73112380D01*
X126278095Y-73112380D01*
X126373333Y-73160000D01*
X126420952Y-73207619D01*
X126468571Y-73302857D01*
X126468571Y-73445714D01*
X126420952Y-73540952D01*
X126373333Y-73588571D01*
X126278095Y-73636190D01*
X125897142Y-73636190D01*
X126801904Y-73112380D02*
X127420952Y-73112380D01*
X127087619Y-73493333D01*
X127230476Y-73493333D01*
X127325714Y-73540952D01*
X127373333Y-73588571D01*
X127420952Y-73683809D01*
X127420952Y-73921904D01*
X127373333Y-74017142D01*
X127325714Y-74064761D01*
X127230476Y-74112380D01*
X126944761Y-74112380D01*
X126849523Y-74064761D01*
X126801904Y-74017142D01*
X127801904Y-73207619D02*
X127849523Y-73160000D01*
X127944761Y-73112380D01*
X128182857Y-73112380D01*
X128278095Y-73160000D01*
X128325714Y-73207619D01*
X128373333Y-73302857D01*
X128373333Y-73398095D01*
X128325714Y-73540952D01*
X127754285Y-74112380D01*
X128373333Y-74112380D01*
X128563809Y-74207619D02*
X129325714Y-74207619D01*
X129563809Y-74112380D02*
X129563809Y-73112380D01*
X129944761Y-73112380D01*
X130040000Y-73160000D01*
X130087619Y-73207619D01*
X130135238Y-73302857D01*
X130135238Y-73445714D01*
X130087619Y-73540952D01*
X130040000Y-73588571D01*
X129944761Y-73636190D01*
X129563809Y-73636190D01*
X130563809Y-74112380D02*
X130563809Y-73445714D01*
X130563809Y-73112380D02*
X130516190Y-73160000D01*
X130563809Y-73207619D01*
X130611428Y-73160000D01*
X130563809Y-73112380D01*
X130563809Y-73207619D01*
X131468571Y-74064761D02*
X131373333Y-74112380D01*
X131182857Y-74112380D01*
X131087619Y-74064761D01*
X131040000Y-74017142D01*
X130992380Y-73921904D01*
X130992380Y-73636190D01*
X131040000Y-73540952D01*
X131087619Y-73493333D01*
X131182857Y-73445714D01*
X131373333Y-73445714D01*
X131468571Y-73493333D01*
X132040000Y-74112380D02*
X131944761Y-74064761D01*
X131897142Y-74017142D01*
X131849523Y-73921904D01*
X131849523Y-73636190D01*
X131897142Y-73540952D01*
X131944761Y-73493333D01*
X132040000Y-73445714D01*
X132182857Y-73445714D01*
X132278095Y-73493333D01*
X132325714Y-73540952D01*
X132373333Y-73636190D01*
X132373333Y-73921904D01*
X132325714Y-74017142D01*
X132278095Y-74064761D01*
X132182857Y-74112380D01*
X132040000Y-74112380D01*
X132563809Y-74207619D02*
X133325714Y-74207619D01*
X133563809Y-74112380D02*
X133563809Y-73112380D01*
X133801904Y-73112380D01*
X133944761Y-73160000D01*
X134040000Y-73255238D01*
X134087619Y-73350476D01*
X134135238Y-73540952D01*
X134135238Y-73683809D01*
X134087619Y-73874285D01*
X134040000Y-73969523D01*
X133944761Y-74064761D01*
X133801904Y-74112380D01*
X133563809Y-74112380D01*
X134992380Y-73445714D02*
X134992380Y-74112380D01*
X134754285Y-73064761D02*
X134516190Y-73779047D01*
X135135238Y-73779047D01*
M02*
