G04 #@! TF.GenerationSoftware,KiCad,Pcbnew,(5.1.5)-3*
G04 #@! TF.CreationDate,2020-03-02T23:39:02-06:00*
G04 #@! TF.ProjectId,PMT_PCB,504d545f-5043-4422-9e6b-696361645f70,rev?*
G04 #@! TF.SameCoordinates,Original*
G04 #@! TF.FileFunction,Legend,Bot*
G04 #@! TF.FilePolarity,Positive*
%FSLAX46Y46*%
G04 Gerber Fmt 4.6, Leading zero omitted, Abs format (unit mm)*
G04 Created by KiCad (PCBNEW (5.1.5)-3) date 2020-03-02 23:39:02*
%MOMM*%
%LPD*%
G04 APERTURE LIST*
%ADD10C,0.150000*%
%ADD11C,0.120000*%
G04 APERTURE END LIST*
D10*
X156416190Y-79462380D02*
X155797142Y-79462380D01*
X156130476Y-79843333D01*
X155987619Y-79843333D01*
X155892380Y-79890952D01*
X155844761Y-79938571D01*
X155797142Y-80033809D01*
X155797142Y-80271904D01*
X155844761Y-80367142D01*
X155892380Y-80414761D01*
X155987619Y-80462380D01*
X156273333Y-80462380D01*
X156368571Y-80414761D01*
X156416190Y-80367142D01*
X155368571Y-80367142D02*
X155320952Y-80414761D01*
X155368571Y-80462380D01*
X155416190Y-80414761D01*
X155368571Y-80367142D01*
X155368571Y-80462380D01*
X154987619Y-79462380D02*
X154368571Y-79462380D01*
X154701904Y-79843333D01*
X154559047Y-79843333D01*
X154463809Y-79890952D01*
X154416190Y-79938571D01*
X154368571Y-80033809D01*
X154368571Y-80271904D01*
X154416190Y-80367142D01*
X154463809Y-80414761D01*
X154559047Y-80462380D01*
X154844761Y-80462380D01*
X154940000Y-80414761D01*
X154987619Y-80367142D01*
X154082857Y-79462380D02*
X153749523Y-80462380D01*
X153416190Y-79462380D01*
X155701904Y-71890000D02*
X155797142Y-71842380D01*
X155940000Y-71842380D01*
X156082857Y-71890000D01*
X156178095Y-71985238D01*
X156225714Y-72080476D01*
X156273333Y-72270952D01*
X156273333Y-72413809D01*
X156225714Y-72604285D01*
X156178095Y-72699523D01*
X156082857Y-72794761D01*
X155940000Y-72842380D01*
X155844761Y-72842380D01*
X155701904Y-72794761D01*
X155654285Y-72747142D01*
X155654285Y-72413809D01*
X155844761Y-72413809D01*
X155225714Y-72842380D02*
X155225714Y-71842380D01*
X154654285Y-72842380D01*
X154654285Y-71842380D01*
X154178095Y-72842380D02*
X154178095Y-71842380D01*
X153940000Y-71842380D01*
X153797142Y-71890000D01*
X153701904Y-71985238D01*
X153654285Y-72080476D01*
X153606666Y-72270952D01*
X153606666Y-72413809D01*
X153654285Y-72604285D01*
X153701904Y-72699523D01*
X153797142Y-72794761D01*
X153940000Y-72842380D01*
X154178095Y-72842380D01*
X155106666Y-77922380D02*
X155440000Y-77446190D01*
X155678095Y-77922380D02*
X155678095Y-76922380D01*
X155297142Y-76922380D01*
X155201904Y-76970000D01*
X155154285Y-77017619D01*
X155106666Y-77112857D01*
X155106666Y-77255714D01*
X155154285Y-77350952D01*
X155201904Y-77398571D01*
X155297142Y-77446190D01*
X155678095Y-77446190D01*
X154773333Y-76922380D02*
X154106666Y-77922380D01*
X154106666Y-76922380D02*
X154773333Y-77922380D01*
X155701904Y-74382380D02*
X155130476Y-74382380D01*
X155416190Y-75382380D02*
X155416190Y-74382380D01*
X154892380Y-74382380D02*
X154225714Y-75382380D01*
X154225714Y-74382380D02*
X154892380Y-75382380D01*
D11*
X150549000Y-93885000D02*
X150549000Y-95395000D01*
X154250000Y-93885000D02*
X154250000Y-95395000D01*
X157520000Y-95395000D02*
X147280000Y-95395000D01*
X147280000Y-93885000D02*
X147280000Y-98526000D01*
X157520000Y-93885000D02*
X157520000Y-98526000D01*
X157520000Y-98526000D02*
X147280000Y-98526000D01*
X157520000Y-93885000D02*
X147280000Y-93885000D01*
X127127000Y-92710000D02*
X127127000Y-59690000D01*
X160147000Y-92710000D02*
X127127000Y-92710000D01*
X157861000Y-71060000D02*
X156531000Y-71060000D01*
X156531000Y-71060000D02*
X156531000Y-72390000D01*
X156531000Y-73660000D02*
X156531000Y-81340000D01*
X159191000Y-81340000D02*
X156531000Y-81340000D01*
X159191000Y-73660000D02*
X159191000Y-81340000D01*
X159191000Y-73660000D02*
X156531000Y-73660000D01*
X160147000Y-59690000D02*
X160147000Y-92710000D01*
X127127000Y-59690000D02*
X160147000Y-59690000D01*
X146885199Y-104265000D02*
X146885199Y-103865000D01*
X146685199Y-104065000D02*
X147085199Y-104065000D01*
X151036000Y-103240000D02*
X151036000Y-102500000D01*
X150996000Y-103407000D02*
X150996000Y-102333000D01*
X150956000Y-103534000D02*
X150956000Y-102206000D01*
X150916000Y-103638000D02*
X150916000Y-102102000D01*
X150876000Y-103729000D02*
X150876000Y-102011000D01*
X150836000Y-103810000D02*
X150836000Y-101930000D01*
X150796000Y-103883000D02*
X150796000Y-101857000D01*
X150756000Y-102030000D02*
X150756000Y-101790000D01*
X150756000Y-103950000D02*
X150756000Y-103710000D01*
X150716000Y-102030000D02*
X150716000Y-101728000D01*
X150716000Y-104012000D02*
X150716000Y-103710000D01*
X150676000Y-102030000D02*
X150676000Y-101670000D01*
X150676000Y-104070000D02*
X150676000Y-103710000D01*
X150636000Y-102030000D02*
X150636000Y-101616000D01*
X150636000Y-104124000D02*
X150636000Y-103710000D01*
X150596000Y-102030000D02*
X150596000Y-101566000D01*
X150596000Y-104174000D02*
X150596000Y-103710000D01*
X150556000Y-102030000D02*
X150556000Y-101519000D01*
X150556000Y-104221000D02*
X150556000Y-103710000D01*
X150516000Y-102030000D02*
X150516000Y-101474000D01*
X150516000Y-104266000D02*
X150516000Y-103710000D01*
X150476000Y-102030000D02*
X150476000Y-101432000D01*
X150476000Y-104308000D02*
X150476000Y-103710000D01*
X150436000Y-102030000D02*
X150436000Y-101392000D01*
X150436000Y-104348000D02*
X150436000Y-103710000D01*
X150396000Y-102030000D02*
X150396000Y-101354000D01*
X150396000Y-104386000D02*
X150396000Y-103710000D01*
X150356000Y-102030000D02*
X150356000Y-101318000D01*
X150356000Y-104422000D02*
X150356000Y-103710000D01*
X150316000Y-102030000D02*
X150316000Y-101283000D01*
X150316000Y-104457000D02*
X150316000Y-103710000D01*
X150276000Y-102030000D02*
X150276000Y-101251000D01*
X150276000Y-104489000D02*
X150276000Y-103710000D01*
X150236000Y-102030000D02*
X150236000Y-101220000D01*
X150236000Y-104520000D02*
X150236000Y-103710000D01*
X150196000Y-102030000D02*
X150196000Y-101190000D01*
X150196000Y-104550000D02*
X150196000Y-103710000D01*
X150156000Y-102030000D02*
X150156000Y-101162000D01*
X150156000Y-104578000D02*
X150156000Y-103710000D01*
X150116000Y-102030000D02*
X150116000Y-101135000D01*
X150116000Y-104605000D02*
X150116000Y-103710000D01*
X150076000Y-102030000D02*
X150076000Y-101110000D01*
X150076000Y-104630000D02*
X150076000Y-103710000D01*
X150036000Y-102030000D02*
X150036000Y-101085000D01*
X150036000Y-104655000D02*
X150036000Y-103710000D01*
X149996000Y-102030000D02*
X149996000Y-101062000D01*
X149996000Y-104678000D02*
X149996000Y-103710000D01*
X149956000Y-102030000D02*
X149956000Y-101040000D01*
X149956000Y-104700000D02*
X149956000Y-103710000D01*
X149916000Y-102030000D02*
X149916000Y-101019000D01*
X149916000Y-104721000D02*
X149916000Y-103710000D01*
X149876000Y-102030000D02*
X149876000Y-101000000D01*
X149876000Y-104740000D02*
X149876000Y-103710000D01*
X149836000Y-102030000D02*
X149836000Y-100981000D01*
X149836000Y-104759000D02*
X149836000Y-103710000D01*
X149796000Y-102030000D02*
X149796000Y-100963000D01*
X149796000Y-104777000D02*
X149796000Y-103710000D01*
X149756000Y-102030000D02*
X149756000Y-100946000D01*
X149756000Y-104794000D02*
X149756000Y-103710000D01*
X149716000Y-102030000D02*
X149716000Y-100930000D01*
X149716000Y-104810000D02*
X149716000Y-103710000D01*
X149676000Y-102030000D02*
X149676000Y-100916000D01*
X149676000Y-104824000D02*
X149676000Y-103710000D01*
X149635000Y-102030000D02*
X149635000Y-100902000D01*
X149635000Y-104838000D02*
X149635000Y-103710000D01*
X149595000Y-102030000D02*
X149595000Y-100888000D01*
X149595000Y-104852000D02*
X149595000Y-103710000D01*
X149555000Y-102030000D02*
X149555000Y-100876000D01*
X149555000Y-104864000D02*
X149555000Y-103710000D01*
X149515000Y-102030000D02*
X149515000Y-100865000D01*
X149515000Y-104875000D02*
X149515000Y-103710000D01*
X149475000Y-102030000D02*
X149475000Y-100854000D01*
X149475000Y-104886000D02*
X149475000Y-103710000D01*
X149435000Y-102030000D02*
X149435000Y-100845000D01*
X149435000Y-104895000D02*
X149435000Y-103710000D01*
X149395000Y-102030000D02*
X149395000Y-100836000D01*
X149395000Y-104904000D02*
X149395000Y-103710000D01*
X149355000Y-102030000D02*
X149355000Y-100828000D01*
X149355000Y-104912000D02*
X149355000Y-103710000D01*
X149315000Y-102030000D02*
X149315000Y-100820000D01*
X149315000Y-104920000D02*
X149315000Y-103710000D01*
X149275000Y-102030000D02*
X149275000Y-100814000D01*
X149275000Y-104926000D02*
X149275000Y-103710000D01*
X149235000Y-102030000D02*
X149235000Y-100808000D01*
X149235000Y-104932000D02*
X149235000Y-103710000D01*
X149195000Y-102030000D02*
X149195000Y-100803000D01*
X149195000Y-104937000D02*
X149195000Y-103710000D01*
X149155000Y-102030000D02*
X149155000Y-100799000D01*
X149155000Y-104941000D02*
X149155000Y-103710000D01*
X149115000Y-104944000D02*
X149115000Y-100796000D01*
X149075000Y-104947000D02*
X149075000Y-100793000D01*
X149035000Y-104949000D02*
X149035000Y-100791000D01*
X148995000Y-104950000D02*
X148995000Y-100790000D01*
X148955000Y-104950000D02*
X148955000Y-100790000D01*
X151075000Y-102870000D02*
G75*
G03X151075000Y-102870000I-2120000J0D01*
G01*
X156695000Y-102870000D02*
G75*
G03X156695000Y-102870000I-2120000J0D01*
G01*
X154575000Y-100790000D02*
X154575000Y-104950000D01*
X154535000Y-100790000D02*
X154535000Y-104950000D01*
X154495000Y-100791000D02*
X154495000Y-104949000D01*
X154455000Y-100793000D02*
X154455000Y-104947000D01*
X154415000Y-100796000D02*
X154415000Y-104944000D01*
X154375000Y-100799000D02*
X154375000Y-102030000D01*
X154375000Y-103710000D02*
X154375000Y-104941000D01*
X154335000Y-100803000D02*
X154335000Y-102030000D01*
X154335000Y-103710000D02*
X154335000Y-104937000D01*
X154295000Y-100808000D02*
X154295000Y-102030000D01*
X154295000Y-103710000D02*
X154295000Y-104932000D01*
X154255000Y-100814000D02*
X154255000Y-102030000D01*
X154255000Y-103710000D02*
X154255000Y-104926000D01*
X154215000Y-100820000D02*
X154215000Y-102030000D01*
X154215000Y-103710000D02*
X154215000Y-104920000D01*
X154175000Y-100828000D02*
X154175000Y-102030000D01*
X154175000Y-103710000D02*
X154175000Y-104912000D01*
X154135000Y-100836000D02*
X154135000Y-102030000D01*
X154135000Y-103710000D02*
X154135000Y-104904000D01*
X154095000Y-100845000D02*
X154095000Y-102030000D01*
X154095000Y-103710000D02*
X154095000Y-104895000D01*
X154055000Y-100854000D02*
X154055000Y-102030000D01*
X154055000Y-103710000D02*
X154055000Y-104886000D01*
X154015000Y-100865000D02*
X154015000Y-102030000D01*
X154015000Y-103710000D02*
X154015000Y-104875000D01*
X153975000Y-100876000D02*
X153975000Y-102030000D01*
X153975000Y-103710000D02*
X153975000Y-104864000D01*
X153935000Y-100888000D02*
X153935000Y-102030000D01*
X153935000Y-103710000D02*
X153935000Y-104852000D01*
X153895000Y-100902000D02*
X153895000Y-102030000D01*
X153895000Y-103710000D02*
X153895000Y-104838000D01*
X153854000Y-100916000D02*
X153854000Y-102030000D01*
X153854000Y-103710000D02*
X153854000Y-104824000D01*
X153814000Y-100930000D02*
X153814000Y-102030000D01*
X153814000Y-103710000D02*
X153814000Y-104810000D01*
X153774000Y-100946000D02*
X153774000Y-102030000D01*
X153774000Y-103710000D02*
X153774000Y-104794000D01*
X153734000Y-100963000D02*
X153734000Y-102030000D01*
X153734000Y-103710000D02*
X153734000Y-104777000D01*
X153694000Y-100981000D02*
X153694000Y-102030000D01*
X153694000Y-103710000D02*
X153694000Y-104759000D01*
X153654000Y-101000000D02*
X153654000Y-102030000D01*
X153654000Y-103710000D02*
X153654000Y-104740000D01*
X153614000Y-101019000D02*
X153614000Y-102030000D01*
X153614000Y-103710000D02*
X153614000Y-104721000D01*
X153574000Y-101040000D02*
X153574000Y-102030000D01*
X153574000Y-103710000D02*
X153574000Y-104700000D01*
X153534000Y-101062000D02*
X153534000Y-102030000D01*
X153534000Y-103710000D02*
X153534000Y-104678000D01*
X153494000Y-101085000D02*
X153494000Y-102030000D01*
X153494000Y-103710000D02*
X153494000Y-104655000D01*
X153454000Y-101110000D02*
X153454000Y-102030000D01*
X153454000Y-103710000D02*
X153454000Y-104630000D01*
X153414000Y-101135000D02*
X153414000Y-102030000D01*
X153414000Y-103710000D02*
X153414000Y-104605000D01*
X153374000Y-101162000D02*
X153374000Y-102030000D01*
X153374000Y-103710000D02*
X153374000Y-104578000D01*
X153334000Y-101190000D02*
X153334000Y-102030000D01*
X153334000Y-103710000D02*
X153334000Y-104550000D01*
X153294000Y-101220000D02*
X153294000Y-102030000D01*
X153294000Y-103710000D02*
X153294000Y-104520000D01*
X153254000Y-101251000D02*
X153254000Y-102030000D01*
X153254000Y-103710000D02*
X153254000Y-104489000D01*
X153214000Y-101283000D02*
X153214000Y-102030000D01*
X153214000Y-103710000D02*
X153214000Y-104457000D01*
X153174000Y-101318000D02*
X153174000Y-102030000D01*
X153174000Y-103710000D02*
X153174000Y-104422000D01*
X153134000Y-101354000D02*
X153134000Y-102030000D01*
X153134000Y-103710000D02*
X153134000Y-104386000D01*
X153094000Y-101392000D02*
X153094000Y-102030000D01*
X153094000Y-103710000D02*
X153094000Y-104348000D01*
X153054000Y-101432000D02*
X153054000Y-102030000D01*
X153054000Y-103710000D02*
X153054000Y-104308000D01*
X153014000Y-101474000D02*
X153014000Y-102030000D01*
X153014000Y-103710000D02*
X153014000Y-104266000D01*
X152974000Y-101519000D02*
X152974000Y-102030000D01*
X152974000Y-103710000D02*
X152974000Y-104221000D01*
X152934000Y-101566000D02*
X152934000Y-102030000D01*
X152934000Y-103710000D02*
X152934000Y-104174000D01*
X152894000Y-101616000D02*
X152894000Y-102030000D01*
X152894000Y-103710000D02*
X152894000Y-104124000D01*
X152854000Y-101670000D02*
X152854000Y-102030000D01*
X152854000Y-103710000D02*
X152854000Y-104070000D01*
X152814000Y-101728000D02*
X152814000Y-102030000D01*
X152814000Y-103710000D02*
X152814000Y-104012000D01*
X152774000Y-101790000D02*
X152774000Y-102030000D01*
X152774000Y-103710000D02*
X152774000Y-103950000D01*
X152734000Y-101857000D02*
X152734000Y-103883000D01*
X152694000Y-101930000D02*
X152694000Y-103810000D01*
X152654000Y-102011000D02*
X152654000Y-103729000D01*
X152614000Y-102102000D02*
X152614000Y-103638000D01*
X152574000Y-102206000D02*
X152574000Y-103534000D01*
X152534000Y-102333000D02*
X152534000Y-103407000D01*
X152494000Y-102500000D02*
X152494000Y-103240000D01*
X156844801Y-101675000D02*
X156444801Y-101675000D01*
X156644801Y-101475000D02*
X156644801Y-101875000D01*
D10*
X157685714Y-92337380D02*
X157352380Y-93337380D01*
X157019047Y-92337380D01*
X156114285Y-93337380D02*
X156447619Y-92861190D01*
X156685714Y-93337380D02*
X156685714Y-92337380D01*
X156304761Y-92337380D01*
X156209523Y-92385000D01*
X156161904Y-92432619D01*
X156114285Y-92527857D01*
X156114285Y-92670714D01*
X156161904Y-92765952D01*
X156209523Y-92813571D01*
X156304761Y-92861190D01*
X156685714Y-92861190D01*
X155304761Y-93289761D02*
X155400000Y-93337380D01*
X155590476Y-93337380D01*
X155685714Y-93289761D01*
X155733333Y-93194523D01*
X155733333Y-92813571D01*
X155685714Y-92718333D01*
X155590476Y-92670714D01*
X155400000Y-92670714D01*
X155304761Y-92718333D01*
X155257142Y-92813571D01*
X155257142Y-92908809D01*
X155733333Y-93004047D01*
X154400000Y-92670714D02*
X154400000Y-93480238D01*
X154447619Y-93575476D01*
X154495238Y-93623095D01*
X154590476Y-93670714D01*
X154733333Y-93670714D01*
X154828571Y-93623095D01*
X154400000Y-93289761D02*
X154495238Y-93337380D01*
X154685714Y-93337380D01*
X154780952Y-93289761D01*
X154828571Y-93242142D01*
X154876190Y-93146904D01*
X154876190Y-92861190D01*
X154828571Y-92765952D01*
X154780952Y-92718333D01*
X154685714Y-92670714D01*
X154495238Y-92670714D01*
X154400000Y-92718333D01*
X153257142Y-92337380D02*
X152638095Y-92337380D01*
X152971428Y-92718333D01*
X152828571Y-92718333D01*
X152733333Y-92765952D01*
X152685714Y-92813571D01*
X152638095Y-92908809D01*
X152638095Y-93146904D01*
X152685714Y-93242142D01*
X152733333Y-93289761D01*
X152828571Y-93337380D01*
X153114285Y-93337380D01*
X153209523Y-93289761D01*
X153257142Y-93242142D01*
X152209523Y-93242142D02*
X152161904Y-93289761D01*
X152209523Y-93337380D01*
X152257142Y-93289761D01*
X152209523Y-93242142D01*
X152209523Y-93337380D01*
X151828571Y-92337380D02*
X151209523Y-92337380D01*
X151542857Y-92718333D01*
X151400000Y-92718333D01*
X151304761Y-92765952D01*
X151257142Y-92813571D01*
X151209523Y-92908809D01*
X151209523Y-93146904D01*
X151257142Y-93242142D01*
X151304761Y-93289761D01*
X151400000Y-93337380D01*
X151685714Y-93337380D01*
X151780952Y-93289761D01*
X151828571Y-93242142D01*
X150923809Y-92337380D02*
X150590476Y-93337380D01*
X150257142Y-92337380D01*
X149019047Y-93337380D02*
X149114285Y-93289761D01*
X149161904Y-93242142D01*
X149209523Y-93146904D01*
X149209523Y-92861190D01*
X149161904Y-92765952D01*
X149114285Y-92718333D01*
X149019047Y-92670714D01*
X148876190Y-92670714D01*
X148780952Y-92718333D01*
X148733333Y-92765952D01*
X148685714Y-92861190D01*
X148685714Y-93146904D01*
X148733333Y-93242142D01*
X148780952Y-93289761D01*
X148876190Y-93337380D01*
X149019047Y-93337380D01*
X147828571Y-92670714D02*
X147828571Y-93337380D01*
X148257142Y-92670714D02*
X148257142Y-93194523D01*
X148209523Y-93289761D01*
X148114285Y-93337380D01*
X147971428Y-93337380D01*
X147876190Y-93289761D01*
X147828571Y-93242142D01*
X147495238Y-92670714D02*
X147114285Y-92670714D01*
X147352380Y-92337380D02*
X147352380Y-93194523D01*
X147304761Y-93289761D01*
X147209523Y-93337380D01*
X147114285Y-93337380D01*
X158575285Y-69120000D02*
X158670523Y-69072380D01*
X158813380Y-69072380D01*
X158956238Y-69120000D01*
X159051476Y-69215238D01*
X159099095Y-69310476D01*
X159146714Y-69500952D01*
X159146714Y-69643809D01*
X159099095Y-69834285D01*
X159051476Y-69929523D01*
X158956238Y-70024761D01*
X158813380Y-70072380D01*
X158718142Y-70072380D01*
X158575285Y-70024761D01*
X158527666Y-69977142D01*
X158527666Y-69643809D01*
X158718142Y-69643809D01*
X158099095Y-70072380D02*
X158099095Y-69072380D01*
X157718142Y-69072380D01*
X157622904Y-69120000D01*
X157575285Y-69167619D01*
X157527666Y-69262857D01*
X157527666Y-69405714D01*
X157575285Y-69500952D01*
X157622904Y-69548571D01*
X157718142Y-69596190D01*
X158099095Y-69596190D01*
X157146714Y-70024761D02*
X157003857Y-70072380D01*
X156765761Y-70072380D01*
X156670523Y-70024761D01*
X156622904Y-69977142D01*
X156575285Y-69881904D01*
X156575285Y-69786666D01*
X156622904Y-69691428D01*
X156670523Y-69643809D01*
X156765761Y-69596190D01*
X156956238Y-69548571D01*
X157051476Y-69500952D01*
X157099095Y-69453333D01*
X157146714Y-69358095D01*
X157146714Y-69262857D01*
X157099095Y-69167619D01*
X157051476Y-69120000D01*
X156956238Y-69072380D01*
X156718142Y-69072380D01*
X156575285Y-69120000D01*
X145597619Y-100512857D02*
X145550000Y-100560476D01*
X145502380Y-100655714D01*
X145502380Y-100893809D01*
X145550000Y-100989047D01*
X145597619Y-101036666D01*
X145692857Y-101084285D01*
X145788095Y-101084285D01*
X145930952Y-101036666D01*
X146502380Y-100465238D01*
X146502380Y-101084285D01*
X146407142Y-101512857D02*
X146454761Y-101560476D01*
X146502380Y-101512857D01*
X146454761Y-101465238D01*
X146407142Y-101512857D01*
X146502380Y-101512857D01*
X145597619Y-101941428D02*
X145550000Y-101989047D01*
X145502380Y-102084285D01*
X145502380Y-102322380D01*
X145550000Y-102417619D01*
X145597619Y-102465238D01*
X145692857Y-102512857D01*
X145788095Y-102512857D01*
X145930952Y-102465238D01*
X146502380Y-101893809D01*
X146502380Y-102512857D01*
X145835714Y-103370000D02*
X146502380Y-103370000D01*
X145835714Y-102941428D02*
X146359523Y-102941428D01*
X146454761Y-102989047D01*
X146502380Y-103084285D01*
X146502380Y-103227142D01*
X146454761Y-103322380D01*
X146407142Y-103370000D01*
X145978571Y-104179523D02*
X145978571Y-103846190D01*
X146502380Y-103846190D02*
X145502380Y-103846190D01*
X145502380Y-104322380D01*
X146502380Y-105227142D02*
X146502380Y-104655714D01*
X146502380Y-104941428D02*
X145502380Y-104941428D01*
X145645238Y-104846190D01*
X145740476Y-104750952D01*
X145788095Y-104655714D01*
X158202380Y-100750952D02*
X158202380Y-100846190D01*
X158250000Y-100941428D01*
X158297619Y-100989047D01*
X158392857Y-101036666D01*
X158583333Y-101084285D01*
X158821428Y-101084285D01*
X159011904Y-101036666D01*
X159107142Y-100989047D01*
X159154761Y-100941428D01*
X159202380Y-100846190D01*
X159202380Y-100750952D01*
X159154761Y-100655714D01*
X159107142Y-100608095D01*
X159011904Y-100560476D01*
X158821428Y-100512857D01*
X158583333Y-100512857D01*
X158392857Y-100560476D01*
X158297619Y-100608095D01*
X158250000Y-100655714D01*
X158202380Y-100750952D01*
X159107142Y-101512857D02*
X159154761Y-101560476D01*
X159202380Y-101512857D01*
X159154761Y-101465238D01*
X159107142Y-101512857D01*
X159202380Y-101512857D01*
X158535714Y-102417619D02*
X159202380Y-102417619D01*
X158154761Y-102179523D02*
X158869047Y-101941428D01*
X158869047Y-102560476D01*
X158202380Y-102846190D02*
X158202380Y-103512857D01*
X159202380Y-103084285D01*
X158535714Y-104322380D02*
X159202380Y-104322380D01*
X158535714Y-103893809D02*
X159059523Y-103893809D01*
X159154761Y-103941428D01*
X159202380Y-104036666D01*
X159202380Y-104179523D01*
X159154761Y-104274761D01*
X159107142Y-104322380D01*
X158678571Y-105131904D02*
X158678571Y-104798571D01*
X159202380Y-104798571D02*
X158202380Y-104798571D01*
X158202380Y-105274761D01*
M02*
