G04 #@! TF.GenerationSoftware,KiCad,Pcbnew,(5.1.5)-3*
G04 #@! TF.CreationDate,2020-03-02T23:39:02-06:00*
G04 #@! TF.ProjectId,PMT_PCB,504d545f-5043-4422-9e6b-696361645f70,rev?*
G04 #@! TF.SameCoordinates,Original*
G04 #@! TF.FileFunction,Copper,L1,Top*
G04 #@! TF.FilePolarity,Positive*
%FSLAX46Y46*%
G04 Gerber Fmt 4.6, Leading zero omitted, Abs format (unit mm)*
G04 Created by KiCad (PCBNEW (5.1.5)-3) date 2020-03-02 23:39:02*
%MOMM*%
%LPD*%
G04 APERTURE LIST*
%ADD10C,0.300000*%
%ADD11O,1.905000X2.000000*%
%ADD12R,1.905000X2.000000*%
%ADD13O,1.700000X1.700000*%
%ADD14R,1.700000X1.700000*%
%ADD15C,1.700000*%
%ADD16C,1.200000*%
%ADD17R,1.200000X1.200000*%
%ADD18C,0.800000*%
%ADD19C,0.250000*%
%ADD20C,0.200000*%
G04 APERTURE END LIST*
D10*
X164421428Y-81998571D02*
X165921428Y-81998571D01*
X165921428Y-82570000D01*
X165850000Y-82712857D01*
X165778571Y-82784285D01*
X165635714Y-82855714D01*
X165421428Y-82855714D01*
X165278571Y-82784285D01*
X165207142Y-82712857D01*
X165135714Y-82570000D01*
X165135714Y-81998571D01*
X164421428Y-83498571D02*
X165921428Y-83498571D01*
X164850000Y-83998571D01*
X165921428Y-84498571D01*
X164421428Y-84498571D01*
X165921428Y-84998571D02*
X165921428Y-85855714D01*
X164421428Y-85427142D02*
X165921428Y-85427142D01*
X117518571Y-85641428D02*
X116018571Y-85641428D01*
X116018571Y-85070000D01*
X116090000Y-84927142D01*
X116161428Y-84855714D01*
X116304285Y-84784285D01*
X116518571Y-84784285D01*
X116661428Y-84855714D01*
X116732857Y-84927142D01*
X116804285Y-85070000D01*
X116804285Y-85641428D01*
X117518571Y-84141428D02*
X116018571Y-84141428D01*
X117090000Y-83641428D01*
X116018571Y-83141428D01*
X117518571Y-83141428D01*
X116018571Y-82641428D02*
X116018571Y-81784285D01*
X117518571Y-82212857D02*
X116018571Y-82212857D01*
X139148571Y-113708571D02*
X139148571Y-112208571D01*
X139720000Y-112208571D01*
X139862857Y-112280000D01*
X139934285Y-112351428D01*
X140005714Y-112494285D01*
X140005714Y-112708571D01*
X139934285Y-112851428D01*
X139862857Y-112922857D01*
X139720000Y-112994285D01*
X139148571Y-112994285D01*
X140648571Y-113708571D02*
X140648571Y-112208571D01*
X141148571Y-113280000D01*
X141648571Y-112208571D01*
X141648571Y-113708571D01*
X142148571Y-112208571D02*
X143005714Y-112208571D01*
X142577142Y-113708571D02*
X142577142Y-112208571D01*
X139148571Y-57828571D02*
X139148571Y-56328571D01*
X139720000Y-56328571D01*
X139862857Y-56400000D01*
X139934285Y-56471428D01*
X140005714Y-56614285D01*
X140005714Y-56828571D01*
X139934285Y-56971428D01*
X139862857Y-57042857D01*
X139720000Y-57114285D01*
X139148571Y-57114285D01*
X140648571Y-57828571D02*
X140648571Y-56328571D01*
X141148571Y-57400000D01*
X141648571Y-56328571D01*
X141648571Y-57828571D01*
X142148571Y-56328571D02*
X143005714Y-56328571D01*
X142577142Y-57828571D02*
X142577142Y-56328571D01*
D11*
X149860000Y-97155000D03*
X152400000Y-97155000D03*
D12*
X154940000Y-97155000D03*
D13*
X157861000Y-80010000D03*
X157861000Y-77470000D03*
X157861000Y-74930000D03*
D14*
X157861000Y-72390000D03*
D13*
X143510000Y-100330000D03*
X143510000Y-97790000D03*
X143510000Y-95250000D03*
X143510000Y-92710000D03*
X143510000Y-90170000D03*
X143510000Y-87630000D03*
X143510000Y-85090000D03*
D14*
X143510000Y-82550000D03*
D13*
X148590000Y-108585000D03*
X151130000Y-108585000D03*
X153670000Y-108585000D03*
D14*
X156210000Y-108585000D03*
X143510000Y-62230000D03*
D13*
X143510000Y-64770000D03*
X143510000Y-67310000D03*
X143510000Y-69850000D03*
X143510000Y-72390000D03*
X143510000Y-74930000D03*
X143510000Y-77470000D03*
D15*
X138430000Y-60960000D03*
D13*
X138430000Y-83820000D03*
X138430000Y-86360000D03*
X138430000Y-88900000D03*
X138430000Y-71120000D03*
X138430000Y-63500000D03*
X138430000Y-78740000D03*
X138430000Y-81280000D03*
X138430000Y-96520000D03*
X138430000Y-106680000D03*
X138430000Y-68580000D03*
X138430000Y-66040000D03*
X138430000Y-99060000D03*
X138430000Y-109220000D03*
X138430000Y-104140000D03*
X138430000Y-91440000D03*
X138430000Y-73660000D03*
X138430000Y-93980000D03*
X138430000Y-76200000D03*
X138430000Y-101600000D03*
D14*
X120650000Y-60960000D03*
D13*
X120650000Y-83820000D03*
X120650000Y-86360000D03*
X120650000Y-88900000D03*
X120650000Y-71120000D03*
X120650000Y-63500000D03*
X120650000Y-78740000D03*
X120650000Y-81280000D03*
X120650000Y-96520000D03*
X120650000Y-106680000D03*
X120650000Y-68580000D03*
X120650000Y-66040000D03*
X120650000Y-99060000D03*
X120650000Y-109220000D03*
X120650000Y-104140000D03*
X120650000Y-91440000D03*
X120650000Y-73660000D03*
X120650000Y-93980000D03*
X120650000Y-76200000D03*
X120650000Y-101600000D03*
D16*
X149955000Y-102870000D03*
D17*
X147955000Y-102870000D03*
X155575000Y-102870000D03*
D16*
X153575000Y-102870000D03*
D18*
X128270000Y-92710000D03*
X125730000Y-90170000D03*
X133350000Y-87630000D03*
X130810000Y-87630000D03*
X140970000Y-72390000D03*
X140970000Y-71120000D03*
X129540000Y-88900000D03*
D19*
X155575000Y-107950000D02*
X156210000Y-108585000D01*
D20*
X151130000Y-108585000D02*
X151130000Y-110490000D01*
X156210000Y-109635000D02*
X156210000Y-108585000D01*
X155355000Y-110490000D02*
X156210000Y-109635000D01*
X151130000Y-110490000D02*
X155355000Y-110490000D01*
D19*
X155575000Y-97790000D02*
X154940000Y-97155000D01*
X155575000Y-102870000D02*
X155575000Y-97790000D01*
X156210000Y-103505000D02*
X155575000Y-102870000D01*
X156210000Y-108585000D02*
X156210000Y-103505000D01*
X133350000Y-60960000D02*
X138430000Y-66040000D01*
X120650000Y-60960000D02*
X133350000Y-60960000D01*
X138430000Y-66040000D02*
X140970000Y-68580000D01*
X140970000Y-69850000D02*
X143510000Y-72390000D01*
X140970000Y-68580000D02*
X140970000Y-69850000D01*
X143510000Y-81450000D02*
X143510000Y-82550000D01*
X144950000Y-80010000D02*
X143510000Y-81450000D01*
X157861000Y-80010000D02*
X144950000Y-80010000D01*
X150241000Y-72390000D02*
X157861000Y-80010000D01*
X143510000Y-72390000D02*
X150241000Y-72390000D01*
X144610000Y-82550000D02*
X143510000Y-82550000D01*
X149860000Y-87800000D02*
X144610000Y-82550000D01*
X149860000Y-97155000D02*
X149860000Y-87800000D01*
X147955000Y-97857500D02*
X147955000Y-102020000D01*
X147955000Y-102020000D02*
X147955000Y-102870000D01*
X148657500Y-97155000D02*
X147955000Y-97857500D01*
X149860000Y-97155000D02*
X148657500Y-97155000D01*
D20*
X143510000Y-100330000D02*
X135890000Y-100330000D01*
X135890000Y-100330000D02*
X128270000Y-92710000D01*
X125730000Y-90170000D02*
X118110000Y-90170000D01*
X118110000Y-78740000D02*
X120650000Y-76200000D01*
X118110000Y-90170000D02*
X118110000Y-78740000D01*
X121852081Y-83820000D02*
X120650000Y-83820000D01*
X128503998Y-83820000D02*
X121852081Y-83820000D01*
X137393998Y-92710000D02*
X128503998Y-83820000D01*
X143510000Y-92710000D02*
X137393998Y-92710000D01*
X143510000Y-90170000D02*
X140970000Y-87630000D01*
X140970000Y-87630000D02*
X133350000Y-87630000D01*
X121920000Y-87630000D02*
X120650000Y-86360000D01*
X130810000Y-87630000D02*
X121920000Y-87630000D01*
X140970000Y-72390000D02*
X140970000Y-82550000D01*
X139700000Y-82550000D02*
X138430000Y-83820000D01*
X140970000Y-82550000D02*
X139700000Y-82550000D01*
X138430000Y-73660000D02*
X140970000Y-71120000D01*
X120650000Y-99060000D02*
X129540000Y-90170000D01*
X129540000Y-90170000D02*
X129540000Y-88900000D01*
M02*
